<?xml version="1.0" encoding="UTF-8"?>
<svg id="Layer_2" data-name="Layer 2" xmlns="http://www.w3.org/2000/svg" viewBox="0 0 100.75 37.82">
  <g id="Elements">
    <path fill="#061824" d="m94.73,9.14c-8.3,2.09-15.03,7.92-23.92,7.98-.58-3.46,1.39-4.81,3.39-4.74,2.83.09,4.91-1.22,7.15-2.35,4.15-2.1,8.24-4.32,12.33-6.52,3.81-2.05,5.35-1.33,5.71,2.85.49,5.59.9,11.19,1.32,16.79.08,1.08.01,2.17.01,3.41-3.52-1.5-3.71-2.04-5.3-14.49-.93.88-1.73,1.48-2.34,2.23-11.53,14.19-26.24,22.33-44.63,23.42-7.86.47-15.43-.61-21.96-5.41-1.81-1.33-3.5-1.23-5.42-.82-5.79,1.21-11.5.86-17.09-1.02-1.43-.48-2.76-1.24-3.99-2.34,7.18,1.02,14.22,2.83,21.56.18-.5-.96-.92-1.79-1.36-2.61-4-7.41-2.78-15.64,3.2-21.63,5.25-5.25,12.57-5.42,17.61-.41,5.66,5.62,5.84,13.67.19,18.78-1.99,1.8-4.46,3.1-6.77,4.52-1.32.81-2.78,1.41-4.57,2.3,3.18,2.78,6.69,3.76,10.32,4.2,14.31,1.72,27.43-1.67,39.21-9.87,3.8-2.64,7.14-5.96,10.55-9.11,1.75-1.61,3.2-3.55,4.78-5.34ZM21.74,18.49c.85,1.72,2.04,4.45,3.58,6.99.41.68,2.04,1.25,2.8.99,4.53-1.59,8.96-3.48,12.14-7.32,2.85-3.45,2.41-8.56-.93-12.22-3.19-3.49-7.46-4.17-11.17-1.54-4.04,2.86-5.9,6.99-6.41,13.1Z"/>
  </g>
</svg>