<?xml version="1.0" encoding="UTF-8"?>
<svg id="Layer_2" data-name="Layer 2" xmlns="http://www.w3.org/2000/svg" viewBox="0 0 63.13 96.48">
  <g id="Elements">
    <path fill="#061824" d="m32.57,91.9c2.98.23,5.96.45,9.23.7-.18,2.27-1.89,3.56-3.95,3.66-4.62.21-9.33.47-13.86-.23-5-.77-6.01-3.64-3.5-7.98,2.25-3.89,4.62-7.7,6.98-11.52.73-1.19,1.38-2.67,3.54-1.92.74,2.9-1.42,4.98-2.44,7.35-1.06,2.45-2.39,4.79-4.04,8.02,2.14-.8,3.46-1.18,4.68-1.76,11.67-5.57,20.83-13.74,26.29-25.67,2.51-5.49,3.84-11.24,3.19-17.3-.96-8.96-5.27-14.07-14.04-16.08-3.67-.84-7.54-.81-11.41-1.18-.33,2.09-.53,3.49-.76,4.89-1.16,6.82-5.51,10.66-11.87,12.45-2.53.71-5.22.87-7.07-1.53-1.75-2.29-1.36-4.9-.29-7.33,1.61-3.67,4.56-6.18,7.91-8.17,2.18-1.3,4.55-2.29,7.02-3.51.38-2.68-1.13-4.85-2.39-7-3.21-5.49-8.21-8.91-13.84-11.51C8.07,4.49,4.13,2.84,0,1.03,2.82-.68,3.98-.62,13.32,3.98c4.11,2.02,8.25,4.53,11.42,7.76,3.28,3.34,5.39,7.82,8.56,12.64,1.96,0,4.99-.22,7.99.04,13.45,1.17,21.26,9.49,21.81,22.93.36,8.84-2.36,16.75-7.08,24.07-4.89,7.58-11.41,13.4-19.42,17.54-1.4.72-2.8,1.44-4.2,2.16.06.26.12.52.18.78Zm-3.87-62.17c-7.86,1.98-12.48,6.65-11.58,11.71,7.38-.01,12.06-4.74,11.58-11.71Z"/>
  </g>
</svg>