<?xml version="1.0" encoding="UTF-8"?>
<svg id="Layer_2" data-name="Layer 2" xmlns="http://www.w3.org/2000/svg" viewBox="0 0 104.31 74">
  <g id="Elements">
    <path fill="#061824" d="m12.13,5.72C7.24,11.87,6.12,19.6,1.45,25.56c-.11.14-.6,0-1.45-.05.17-1.39.07-2.83.53-4.07C2.64,15.73,4.67,9.98,7.18,4.44,9.55-.81,12.48-1.29,16.97,2.38c4.1,3.35,8.12,6.78,12.15,10.21.43.37.66.97,1.5,2.22-6.89-.6-10.44-5.87-16.29-8.47,1.2,5.31,2.01,10.03,3.35,14.59,4.52,15.42,12.05,29,25.01,39.01,17.12,13.22,38.43,13.94,56.52,2.07.13-.09.26-.19.4-.26,1.42-.73,3.02-3,4.39-.63,1.23,2.13-1.28,2.9-2.66,3.8-21.88,14.18-47.42,11.59-65.99-6.76-11.93-11.79-18.48-26.38-21.66-42.63-.64-3.25-1.03-6.54-1.54-9.81Z"/>
  </g>
</svg>