<svg xmlns="http://www.w3.org/2000/svg" width="200" height="200" fill="none" viewBox="0 0 200 200" version="1.1" xmlns:xlink="http://www.w3.org/1999/xlink" xmlns:svgjs="http://svgjs.dev/svgjs"><g clip-path="url(#clip0_133_15)"><path fill="url(&quot;#SvgjsLinearGradient3277&quot;)" fill-rule="evenodd" d="M100.387 91.853C96.242 40.435 53.2 0 .714 0c0 52.242 40.061 95.128 91.14 99.613C40.434 103.758 0 146.8 0 199.286c52.242 0 95.128-40.061 99.613-91.139C103.758 159.565 146.8 200 199.286 200c0-52.242-40.061-95.128-91.139-99.613C159.565 96.242 200 53.2 200 .714c-52.242 0-95.128 40.061-99.613 91.14Zm-.39 8.149.005.001.001-.005h-.005v.004Z" clip-rule="evenodd"></path></g><defs><linearGradient gradientTransform="rotate(0 0.5 0.5)" id="SvgjsLinearGradient3277"><stop stop-opacity=" 1" stop-color="rgba(66, 125, 157)" offset="0"></stop><stop stop-opacity=" 1" stop-color="rgba(122, 255, 170)" offset="1"></stop></linearGradient></defs></svg>