<?xml version="1.0" encoding="UTF-8"?>
<svg version="1.1" xmlns="http://www.w3.org/2000/svg" width="391" height="581">
<path d="M0 0 C0.82602722 -0.00067474 1.65205444 -0.00134949 2.50311279 -0.00204468 C50.40065881 0.06007247 93.88304996 17.34229188 130.25 48.25 C131.1678125 49.013125 132.085625 49.77625 133.03125 50.5625 C137.01215098 53.92664168 137.01215098 53.92664168 138.25 55.25 C138.25 55.91 138.25 56.57 138.25 57.25 C138.91 57.25 139.57 57.25 140.25 57.25 C140.25 57.91 140.25 58.57 140.25 59.25 C140.91 59.25 141.57 59.25 142.25 59.25 C146.56764539 63.44003026 149.9261919 68.26428785 153.25 73.25 C154.03632813 74.02214844 154.82265625 74.79429688 155.6328125 75.58984375 C159.92509459 79.95259614 162.98378102 85.10296499 166.25 90.25 C166.6114209 90.80977539 166.9728418 91.36955078 167.34521484 91.94628906 C195.93278824 136.42708659 202.27075643 190.84643474 191.55322266 242.02905273 C185.30316407 269.49456351 171.84244542 293.13412787 156.25 316.25 C150.0838884 325.43228699 144.00599519 334.66692002 138.015625 343.96484375 C136.24450829 346.71379028 134.46395833 349.45608517 132.671875 352.19140625 C114.75240923 379.5196124 114.75240923 379.5196124 99.25 408.25 C98.78956299 409.20181152 98.78956299 409.20181152 98.31982422 410.17285156 C88.17936424 431.48994413 82.79634541 453.7129933 79.1953125 476.9609375 C79.02475342 478.04721436 78.85419434 479.13349121 78.6784668 480.25268555 C78.35984275 482.31954315 78.05573946 484.38871125 77.76879883 486.46020508 C76.77019998 493.05482227 75.42004176 497.81595467 69.89453125 502.05859375 C64.10759856 504.66570523 57.5107191 504.70630309 51.25 505.25 C49.71400146 505.38752686 49.71400146 505.38752686 48.14697266 505.52783203 C29.32363278 507.13612954 10.62196537 507.3502113 -8.26123047 507.2300415 C-23.86547575 507.13663408 -39.22676346 507.4961728 -54.75 509.25 C-55.08 510.24 -55.41 511.23 -55.75 512.25 C-48.495015 514.16664456 -41.79331978 514.54212461 -34.30859375 514.515625 C-32.52563904 514.51958282 -32.52563904 514.51958282 -30.70666504 514.52362061 C-26.86683521 514.52743505 -23.02729991 514.51481822 -19.1875 514.5 C-17.87999786 514.49822754 -16.57249573 514.49645508 -15.22537231 514.49462891 C2.09779466 514.46696653 19.25672335 514.00869265 36.52734375 512.70703125 C43.47671223 512.19484491 50.40785025 511.99024686 57.375 511.9375 C58.39601807 511.92009766 59.41703613 511.90269531 60.46899414 511.88476562 C67.49243369 511.88957661 71.75728672 513.02823381 77.125 517.8125 C79.79750006 521.2832793 79.97807182 524.63569748 79.71484375 528.91796875 C79.25 531.25 79.25 531.25 77.4375 534.125 C69.07304802 539.70130132 59.7637652 541.03514438 49.9375 541.9375 C48.83599609 542.05416016 47.73449219 542.17082031 46.59960938 542.29101562 C23.91853617 544.5552852 1.07992395 544.50515791 -21.69061279 544.77606201 C-25.97028569 544.82698647 -30.24987458 544.88161263 -34.52942657 544.94187927 C-36.51369149 544.96830802 -38.49802834 544.98914544 -40.48236084 545.0098877 C-41.67250793 545.02660522 -42.86265503 545.04332275 -44.08886719 545.06054688 C-45.66145294 545.07933899 -45.66145294 545.07933899 -47.26580811 545.09851074 C-49.7509776 545.08717956 -49.7509776 545.08717956 -51.75 546.25 C-50.83001221 546.33040527 -49.91002441 546.41081055 -48.9621582 546.49365234 C-37.19296126 547.52357645 -37.19296126 547.52357645 -31.36523438 548.04296875 C-30.20276688 548.14656708 -30.20276688 548.14656708 -29.01681519 548.2522583 C-27.4550619 548.39147261 -25.89331467 548.53075493 -24.33157349 548.67010498 C-19.94496946 549.06004349 -15.55749952 549.43321117 -11.16796875 549.7890625 C-9.36197098 549.94261202 -7.55598061 550.09624875 -5.75 550.25 C-4.57304565 550.33773682 -4.57304565 550.33773682 -3.37231445 550.42724609 C5.02221527 551.16592823 13.48079768 552.75964739 19.25 559.25 C21.32240083 563.91531163 21.73976115 568.32232851 20.25 573.25 C16.94528705 577.94617103 10.7146583 579.67469897 5.33984375 580.90234375 C0.47436506 581.71174114 -3.50875338 582.07749775 -7.75 579.25 C-6.875 572.375 -6.875 572.375 -5.75 571.25 C-3.6527518 570.87559586 -1.54663459 570.55029947 0.5625 570.25 C5.95245632 569.47817752 5.95245632 569.47817752 11.25 568.25 C10.67964564 566.23335253 10.67964564 566.23335253 9.25 564.25 C0.23022575 560.87547488 -10.19567801 560.56545078 -19.7394104 559.85647583 C-22.04813932 559.68390165 -24.35546122 559.49806041 -26.6628418 559.30834961 C-29.67979048 559.06044235 -32.69689768 558.81487764 -35.71435547 558.57324219 C-36.4043866 558.51793335 -37.09441772 558.46262451 -37.80535889 558.40563965 C-39.54225949 558.26662654 -41.27918473 558.12792127 -43.01611328 557.98925781 C-45.5336019 557.78118639 -48.04785008 557.5520558 -50.5625 557.3125 C-51.84769531 557.20035156 -53.13289062 557.08820312 -54.45703125 556.97265625 C-59.18356508 555.93539794 -62.36254307 553.63745693 -65.75 550.25 C-66.12109375 548.26171875 -66.12109375 548.26171875 -66.1875 545.9375 C-66.22746094 545.17824219 -66.26742187 544.41898438 -66.30859375 543.63671875 C-65.46706611 540.04110065 -63.53624997 538.60575946 -60.75 536.25 C-50.71435332 533.23954417 -39.32532216 534.06221763 -28.95318604 534.21392822 C22.71048123 538.0584706 22.71048123 538.0584706 69.25 525.25 C65.85325219 521.85325219 62.2082154 522.09164502 57.5625 522.0625 C50.79868113 522.10455483 44.11261637 522.61495518 37.375 523.1875 C18.94290432 524.73364702 0.58181932 525.34665374 -17.91162109 525.42523193 C-19.68833037 525.43326501 -21.46502931 525.44425989 -23.24169922 525.45855713 C-32.38463617 525.52442906 -41.46436685 525.37029546 -50.5703125 524.48828125 C-51.65371414 524.39682076 -51.65371414 524.39682076 -52.75900269 524.30351257 C-58.03630098 523.7142131 -61.40722395 522.13577141 -65.75 519.25 C-68.33450084 515.71294601 -67.94255145 512.61565445 -67.3515625 508.4375 C-66.38848558 504.9354021 -64.63136289 503.36299945 -61.75 501.25 C-51.04845299 497.15300988 -39.40196531 496.96090488 -28.078125 496.94140625 C-25.46638627 496.91838468 -22.85465133 496.89493057 -20.24291992 496.87109375 C-18.88194981 496.8615304 -17.52097765 496.85225589 -16.16000366 496.84326172 C4.61540393 496.69852721 25.33721068 496.31933945 46.0625 494.75 C46.94812622 494.68410675 47.83375244 494.6182135 48.74621582 494.55032349 C51.19224492 494.36473623 53.63725901 494.17016935 56.08203125 493.96875 C56.79037613 493.91146225 57.49872101 493.8541745 58.22853088 493.79515076 C61.85980866 493.49294224 61.85980866 493.49294224 65.25 492.25 C65.8119621 490.09530801 65.8119621 490.09530801 66.109375 487.44921875 C66.25221924 486.42328613 66.39506348 485.39735352 66.54223633 484.34033203 C66.69329834 483.21739746 66.84436035 482.09446289 67 480.9375 C71.84859894 447.57932478 80.35194131 417.52639565 97.25 388.25 C97.72928955 387.4149292 97.72928955 387.4149292 98.21826172 386.56298828 C103.48893111 377.40431935 108.97145639 368.37314283 114.49517822 359.36550903 C115.54081752 357.66035817 116.58463722 355.95409191 117.62841797 354.24780273 C120.36619241 349.80035045 123.08615338 345.38291194 126.16796875 341.1640625 C128.36763606 338.38743687 128.36763606 338.38743687 129.25 335.25 C128.13625 335.270625 127.0225 335.29125 125.875 335.3125 C122.25 335.25 122.25 335.25 120.25 334.25 C118.77325971 334.11575088 117.29312445 334.01834533 115.8125 333.9375 C110.66283861 333.51223764 105.77831352 332.5647931 100.75 331.4375 C91.37229254 329.34338326 81.93215298 327.94120656 72.4140625 326.64526367 C71.31191406 326.49162354 70.20976562 326.3379834 69.07421875 326.1796875 C67.60601685 325.98221924 67.60601685 325.98221924 66.1081543 325.78076172 C63.02992073 325.20913109 60.19525438 324.30240265 57.25 323.25 C57.82889381 319.96245489 58.79828411 318.31327505 61.1875 316 C61.71214844 315.47921875 62.23679687 314.9584375 62.77734375 314.421875 C64.25 313.25 64.25 313.25 66.25 313.25 C66.58 312.26 66.91 311.27 67.25 310.25 C67.91 310.25 68.57 310.25 69.25 310.25 C70.05032162 308.45430256 70.05032162 308.45430256 70.25 306.25 C68.99069115 304.23189886 68.99069115 304.23189886 67.015625 302.38671875 C66.30124268 301.66766357 65.58686035 300.9486084 64.85083008 300.20776367 C64.07505615 299.45857666 63.29928223 298.70938965 62.5 297.9375 C61.72100342 297.17219971 60.94200684 296.40689941 60.1394043 295.6184082 C55.22143521 290.88241668 50.44581477 286.80642687 44.453125 283.49609375 C42.39927012 282.3344276 41.0112346 281.1059876 39.3125 279.5 C35.26711686 277.84882321 33.96101917 278.84605131 30 280.5 C28.96359375 281.00015625 27.9271875 281.5003125 26.859375 282.015625 C24.25 283.25 24.25 283.25 22.25 283.25 C21.39408562 293.01582555 20.96820396 302.76765025 20.6875 312.5625 C20.64415585 313.99675315 20.60053749 315.43099804 20.55664062 316.86523438 C20.45127943 320.32673386 20.34958188 323.78832884 20.25 327.25 C21.51457031 327.23839844 22.77914062 327.22679687 24.08203125 327.21484375 C25.74218602 327.20546434 27.40234239 327.1963643 29.0625 327.1875 C29.89587891 327.17912109 30.72925781 327.17074219 31.58789062 327.16210938 C32.79155273 327.15727539 32.79155273 327.15727539 34.01953125 327.15234375 C35.12711792 327.14448853 35.12711792 327.14448853 36.25708008 327.13647461 C38.25 327.25 38.25 327.25 41.25 328.25 C40.80084041 333.38604226 38.17468399 336.44305545 35.125 340.375 C30.94732052 345.88524446 27.12960797 351.42532842 23.58984375 357.37109375 C23.14769531 357.99113281 22.70554688 358.61117188 22.25 359.25 C21.59 359.25 20.93 359.25 20.25 359.25 C20.14945313 359.81589844 20.04890625 360.38179688 19.9453125 360.96484375 C19.10928346 363.71246729 17.82484874 365.49902873 16.125 367.8125 C14.81053354 369.60853367 13.52433846 371.42527522 12.25 373.25 C11.66492676 373.95398926 11.07985352 374.65797852 10.47705078 375.38330078 C3.85092381 384.15561017 4.28322818 392.48505284 4.375 403 C4.36301773 404.74620613 4.34712281 406.49238962 4.32739258 408.23852539 C4.2916567 411.67427452 4.27050044 415.10947981 4.26513672 418.54541016 C4.25219097 424.59625403 4.13717258 430.63998059 3.9375 436.6875 C3.9267041 437.56567383 3.9159082 438.44384766 3.90478516 439.34863281 C3.70026822 445.59321674 2.5210264 451.10680974 -2.12199402 455.56837463 C-7.03119758 459.58398709 -11.2040093 459.98535236 -17.40234375 459.95703125 C-18.30247696 459.97215256 -19.20261017 459.98727386 -20.13002014 460.00285339 C-22.98277144 460.04557052 -25.83446138 460.05455282 -28.6875 460.0625 C-30.63088728 460.08565677 -32.57424954 460.11102455 -34.51757812 460.13867188 C-39.26181192 460.20136622 -44.00538879 460.23382627 -48.75 460.25 C-49.34070014 462.19603274 -49.34070014 462.19603274 -49.75 464.25 C-45.35020598 468.64979402 -29.63415282 467.3668983 -23.58510971 467.41717339 C-20.27600602 467.41221603 -16.96778466 467.3843303 -13.65898895 467.33919907 C-10.96748183 467.30363855 -8.27622345 467.28358748 -5.58453369 467.2673645 C2.05211732 467.21907909 9.68842167 467.14674135 17.32470703 467.05810547 C22.03329069 467.00450599 26.74169174 466.97046186 31.45052338 466.94836807 C33.23192976 466.93599765 35.01330097 466.91604868 36.79453278 466.8882103 C39.27504462 466.84970086 41.75458074 466.83598039 44.23535156 466.82763672 C44.9616124 466.81011353 45.68787323 466.79259033 46.43614197 466.77453613 C51.49739544 466.79393264 54.357705 468.06120053 58.25 471.25 C59.80024464 474.35048928 59.53992015 476.82894218 59.25 480.25 C55.20743087 486.37453891 50.03601471 488.11423093 43.25 490.25 C32.61984427 492.18035581 21.9721454 492.56292567 11.19140625 492.55078125 C9.70800156 492.55468796 8.22459794 492.55902651 6.74119568 492.56376648 C3.65970198 492.57114777 0.57832302 492.57099664 -2.50317383 492.56567383 C-6.40007143 492.55988092 -10.29649345 492.57684573 -14.19331264 492.6000185 C-17.24875001 492.61493607 -20.30407741 492.6156036 -23.35954475 492.61250877 C-24.79407761 492.61301269 -26.22861823 492.61806942 -27.66311455 492.62832069 C-41.71165915 492.71646303 -55.93725315 491.45174725 -68.75 485.25 C-68.75 484.59 -68.75 483.93 -68.75 483.25 C-69.74 482.92 -70.73 482.59 -71.75 482.25 C-74.6430033 477.43086556 -76.23315194 472.11658596 -78 466.8125 C-80.61937164 459.12426358 -83.61103762 451.8081075 -87.171875 444.51171875 C-88.49780774 441.77123896 -89.71542914 439.01057205 -90.90136719 436.20776367 C-95.65622867 425.23847879 -100.83530567 414.41151666 -107.04296875 404.19140625 C-109.09199045 400.66071211 -110.891597 397.03910972 -112.6875 393.375 C-115.77244411 387.0991687 -119.09209536 381.01449853 -122.60546875 374.96484375 C-125.10762916 370.65471628 -127.52243709 366.29685508 -129.9375 361.9375 C-130.34145996 361.20869629 -130.74541992 360.47989258 -131.16162109 359.72900391 C-132.7692225 356.82743131 -134.37681552 353.92586457 -135.98022461 351.02197266 C-138.90818596 345.73042096 -141.90132078 340.48013819 -144.9375 335.25 C-145.41380859 334.42894775 -145.89011719 333.60789551 -146.38085938 332.76196289 C-147.83553648 330.25698001 -149.29225712 327.75319988 -150.75 325.25 C-151.18006348 324.51120605 -151.61012695 323.77241211 -152.05322266 323.01123047 C-155.81866975 316.55175704 -159.58687807 310.09753049 -163.5390625 303.75 C-175.97615423 283.76724024 -186.39265509 262.87052379 -190.29296875 239.42578125 C-190.72590656 237.1283185 -190.72590656 237.1283185 -191.70947266 234.52514648 C-195.39736958 222.91718375 -195.09497296 210.27165343 -195.06567383 198.21777344 C-195.06252004 195.51716429 -195.08605106 192.8176619 -195.11132812 190.1171875 C-195.15364895 178.23260877 -193.9983182 166.91485959 -191.75 155.25 C-191.52723389 154.08484863 -191.30446777 152.91969727 -191.07495117 151.71923828 C-186.93005393 131.21475723 -178.93789679 108.07034309 -165.625 91.625 C-163.65253416 89.30653072 -163.65253416 89.30653072 -162.4375 86.5 C-160.5088007 82.78546801 -158.13819049 79.76447123 -155.52734375 76.5078125 C-153.90714171 74.44962178 -152.41299299 72.35038884 -150.9375 70.1875 C-150.215625 69.218125 -149.49375 68.24875 -148.75 67.25 C-148.09 67.25 -147.43 67.25 -146.75 67.25 C-146.523125 66.693125 -146.29625 66.13625 -146.0625 65.5625 C-144.37449964 62.58840412 -142.28323483 60.52991135 -139.75 58.25 C-139.09 58.25 -138.43 58.25 -137.75 58.25 C-137.523125 57.69183594 -137.29625 57.13367187 -137.0625 56.55859375 C-128.52775949 41.54659481 -106.58348138 30.07444456 -91.75 22.25 C-90.65816406 21.65832031 -89.56632812 21.06664063 -88.44140625 20.45703125 C-60.99935118 6.08564287 -30.77406123 0.02254538 0 0 Z M-84.48510742 30.13671875 C-86.86396524 31.30601827 -89.28788024 32.27096104 -91.75 33.25 C-94.85033639 35.09688007 -97.77871465 37.20311453 -100.75 39.25 C-101.73355469 39.90097656 -102.71710938 40.55195312 -103.73046875 41.22265625 C-119.82400623 52.02355656 -133.82783744 64.94956403 -145.75 80.25 C-146.17007324 80.77770996 -146.59014648 81.30541992 -147.02294922 81.84912109 C-178.06774669 121.04360956 -190.00699971 170.43222128 -184.52734375 219.65234375 C-183.21009101 229.94933645 -180.95769969 240.11350455 -178.75 250.25 C-178.09 250.25 -177.43 250.25 -176.75 250.25 C-176.63011719 251.11238281 -176.51023438 251.97476563 -176.38671875 252.86328125 C-171.53345477 278.67788168 -152.79094493 304.76758427 -138.74487305 326.52148438 C-137.34059335 328.96131265 -136.61866861 331.58194641 -135.75 334.25 C-135.31171875 334.67796875 -134.8734375 335.1059375 -134.421875 335.546875 C-132.16526738 337.8456622 -130.74125661 340.40547532 -129.125 343.1875 C-128.51398438 344.22777344 -127.90296875 345.26804687 -127.2734375 346.33984375 C-126.02092022 348.73247291 -125.21925814 350.6183496 -124.75 353.25 C-124.09 353.25 -123.43 353.25 -122.75 353.25 C-122.4715625 353.97832031 -122.193125 354.70664062 -121.90625 355.45703125 C-120.82517335 358.06841573 -119.61854113 360.46696499 -118.25 362.9375 C-117.46689453 364.35869141 -117.46689453 364.35869141 -116.66796875 365.80859375 C-115.19619568 368.44939228 -113.71899869 371.08687934 -112.23828125 373.72265625 C-111.79742187 374.51003174 -111.3565625 375.29740723 -110.90234375 376.10864258 C-110.02669327 377.67150636 -109.14791635 379.23262363 -108.265625 380.79174805 C-106.42957603 384.06850551 -104.73914238 387.27541993 -103.26171875 390.734375 C-101.74747034 394.25588294 -99.99519596 397.49897975 -98.11083984 400.83056641 C-86.54999166 421.38456812 -76.60332971 442.62807188 -68.44140625 464.74609375 C-67.87876716 466.24783207 -67.31504054 467.74916359 -66.75 469.25 C-66.50362793 469.92434082 -66.25725586 470.59868164 -66.00341797 471.29345703 C-64.54607201 475.04021802 -63.34591571 477.35003035 -59.75 479.25 C-43.41502886 484.41538277 -25.4065593 483.41372313 -8.48681641 483.38037109 C-5.25548615 483.3750091 -2.02429483 483.38034919 1.20703125 483.38671875 C25.13245065 483.64599299 25.13245065 483.64599299 48.25 478.25 C48.25 477.59 48.25 476.93 48.25 476.25 C47.22286392 476.25666183 46.19572784 476.26332367 45.13746643 476.27018738 C35.38599275 476.33140248 25.63455882 476.3761645 15.88293552 476.40543652 C10.87133748 476.42099218 5.85989641 476.44204231 0.84838867 476.47631836 C-4.00162833 476.50927659 -8.8514958 476.52692861 -13.70161629 476.53463173 C-15.53807995 476.54011062 -17.37453684 476.55080609 -19.21093559 476.56719017 C-28.29689234 476.64491803 -37.2133208 476.47071635 -46.20336914 475.04418945 C-46.89447753 474.94438121 -47.58558592 474.84457296 -48.29763699 474.74174023 C-53.17933216 473.85011699 -55.60893806 472.02507392 -58.75 468.25 C-60.5061154 464.7377692 -59.69333992 460.96560416 -58.75 457.25 C-56.02456619 453.71430209 -54.08622143 452.05069814 -49.75 451.25 C-46.90086879 451.15708768 -44.07177671 451.11305694 -41.22265625 451.109375 C-39.52667921 451.09105297 -37.83071528 451.07148322 -36.13476562 451.05078125 C-33.47055797 451.02178775 -30.80719813 450.99999903 -28.14282227 450.99951172 C-25.56450832 450.99617471 -22.988133 450.96162434 -20.41015625 450.921875 C-19.2208828 450.93247955 -19.2208828 450.93247955 -18.00758362 450.94329834 C-13.75066119 450.8498146 -12.20167997 450.61649715 -8.77124023 447.83300781 C-5.74398995 443.96438745 -5.58805312 441.88448281 -5.43359375 437.00390625 C-5.39129639 435.70372559 -5.34899902 434.40354492 -5.30541992 433.06396484 C-5.26530852 431.64683245 -5.22602007 430.22967655 -5.1875 428.8125 C-5.16765045 428.10136047 -5.1478009 427.39022095 -5.12734985 426.65753174 C-5.00603806 422.24034437 -4.8993155 417.82294593 -4.80004883 413.4052124 C-4.75193481 411.33331714 -4.6980009 409.2616524 -4.64257812 407.18994141 C-4.55108172 403.50160943 -4.48899701 399.81408186 -4.4375 396.125 C-4.407771 395.01326416 -4.37804199 393.90152832 -4.34741211 392.75610352 C-4.30178909 386.58162789 -4.65881399 383.13799638 -8.75 378.25 C-9.79399562 376.74836482 -10.82402731 375.23697287 -11.84375 373.71875 C-12.97880607 372.06225286 -14.11423075 370.40600823 -15.25 368.75 C-16.38576925 367.09399177 -17.52119393 365.43774714 -18.65625 363.78125 C-19.18992188 363.00523437 -19.72359375 362.22921875 -20.2734375 361.4296875 C-21.56316198 359.52580851 -22.80039111 357.59827181 -24.03125 355.65625 C-24.5984375 354.8621875 -25.165625 354.068125 -25.75 353.25 C-26.41 353.25 -27.07 353.25 -27.75 353.25 C-27.96398437 352.58097656 -28.17796875 351.91195313 -28.3984375 351.22265625 C-30.52665559 346.54180665 -33.78236149 342.72408649 -36.9375 338.68945312 C-37.42476562 338.04814453 -37.91203125 337.40683594 -38.4140625 336.74609375 C-38.86217285 336.17044678 -39.3102832 335.5947998 -39.77197266 335.00170898 C-40.75 333.25 -40.75 333.25 -40.75 329.25 C-34.81 328.92 -28.87 328.59 -22.75 328.25 C-20.71983716 324.18967433 -20.52597164 322.8028704 -20.66796875 318.4453125 C-20.70325684 317.3104541 -20.73854492 316.1755957 -20.77490234 315.00634766 C-21.04015077 309.08246607 -21.33908417 303.16575549 -21.75 297.25 C-21.80720215 296.40695312 -21.8644043 295.56390625 -21.92333984 294.6953125 C-22.27126202 290.5612881 -22.77720951 286.92604274 -24.75 283.25 C-28.80558034 280.00938596 -33.01021425 278.01212713 -38.26953125 278.46875 C-41.14817255 279.37540868 -43.48221918 280.62404096 -46.0625 282.1875 C-46.94550781 282.71214844 -47.82851562 283.23679687 -48.73828125 283.77734375 C-49.40214844 284.26332031 -50.06601563 284.74929688 -50.75 285.25 C-50.75 285.91 -50.75 286.57 -50.75 287.25 C-51.8328125 287.5903125 -51.8328125 287.5903125 -52.9375 287.9375 C-56.34860646 289.52934968 -58.18680605 291.49925528 -60.75 294.25 C-61.85295865 295.31375396 -62.95713546 296.37624625 -64.0625 297.4375 C-66.98028592 299.8426483 -66.98028592 299.8426483 -66.75 302.25 C-67.7090625 302.6521875 -67.7090625 302.6521875 -68.6875 303.0625 C-71.08131686 304.13667752 -71.08131686 304.13667752 -71.75 307.25 C-71.42 307.91 -71.09 308.57 -70.75 309.25 C-70.09 309.25 -69.43 309.25 -68.75 309.25 C-68.75 309.91 -68.75 310.57 -68.75 311.25 C-66.73759483 313.0333144 -64.62752145 314.65712318 -62.5 316.30078125 C-60.27537857 318.77865199 -60.60159107 320.02309957 -60.75 323.25 C-68.98972574 324.82105521 -77.23054679 326.38617924 -85.47281837 327.94381714 C-89.30030695 328.6673334 -93.12739127 329.39285964 -96.95361328 330.12304688 C-100.64854144 330.82810059 -104.34444986 331.52778607 -108.0410881 332.22381592 C-109.44878468 332.48983206 -110.85612217 332.75775592 -112.2630806 333.02764893 C-114.23903193 333.40634728 -116.21641756 333.77753818 -118.19384766 334.1484375 C-119.31747711 334.36161621 -120.44110657 334.57479492 -121.5987854 334.79443359 C-124.6983724 335.24253627 -127.62323262 335.33310835 -130.75 335.25 C-129.5236056 328.15560902 -128.29674398 321.06129893 -127.06958008 313.96704102 C-126.65346063 311.56113449 -126.23744234 309.15521047 -125.8215332 306.74926758 C-123.48708979 293.24545352 -121.14624276 279.74300134 -118.75 266.25 C-116.40625 266.11108398 -116.40625 266.11108398 -113.75 266.25 C-110.99359789 268.70061375 -108.68185035 271.39012671 -106.25 274.16015625 C-103.95529262 276.54113964 -103.95529262 276.54113964 -101.109375 276.20703125 C-97.83283078 274.87796944 -96.03285308 272.91332859 -93.75 270.25 C-93.42 269.26 -93.09 268.27 -92.75 267.25 C-92.09 267.25 -91.43 267.25 -90.75 267.25 C-89.24726114 265.80316948 -89.24726114 265.80316948 -87.6875 263.875 C-84.1021151 259.6493678 -80.40231773 255.54350498 -76.66796875 251.44921875 C-73.40513709 247.81796864 -73.40513709 247.81796864 -72.875 243.125 C-73.93071247 238.44970194 -74.96467371 234.21325744 -77.75 230.25 C-80.70476519 228.54320547 -83.64468905 228.1293873 -87 227.6875 C-87.90645264 227.54022461 -88.81290527 227.39294922 -89.74682617 227.24121094 C-100.68277868 225.65464788 -111.73283205 225.8760003 -122.75 226.25 C-123.72556564 229.17669691 -123.8106341 230.69061321 -123.62890625 233.69921875 C-123.58056641 234.54677734 -123.53222656 235.39433594 -123.48242188 236.26757812 C-123.39831055 237.58918945 -123.39831055 237.58918945 -123.3125 238.9375 C-123.23418945 240.27651367 -123.23418945 240.27651367 -123.15429688 241.64257812 C-123.0247182 243.8454156 -122.88975754 246.04778873 -122.75 248.25 C-127.89253029 245.40193199 -132.7415731 242.2975046 -137.5625 238.9375 C-138.26753662 238.44967041 -138.97257324 237.96184082 -139.69897461 237.45922852 C-143.41511815 234.88507152 -147.11723715 232.29154429 -150.8125 229.6875 C-154.24752197 227.27026232 -157.72534638 224.92768758 -161.22802734 222.61035156 C-163.7977607 220.90829543 -166.35886664 219.19357529 -168.91796875 217.47558594 C-170.10750778 216.67981223 -171.30006261 215.8885215 -172.49609375 215.10253906 C-174.07093211 214.06407212 -175.62974928 213.00142768 -177.1875 211.9375 C-178.07308594 211.34324219 -178.95867187 210.74898437 -179.87109375 210.13671875 C-181.75 208.25 -181.75 208.25 -182.09643555 205.81835938 C-181.75 203.25 -181.75 203.25 -180.22802734 201.64770508 C-179.16769287 200.96550903 -179.16769287 200.96550903 -178.0859375 200.26953125 C-177.30049561 199.75044189 -176.51505371 199.23135254 -175.70581055 198.6965332 C-174.85414307 198.15730225 -174.00247559 197.61807129 -173.125 197.0625 C-171.36769125 195.90746369 -169.61118618 194.75120376 -167.85546875 193.59375 C-166.9845459 193.0265625 -166.11362305 192.459375 -165.21630859 191.875 C-161.89522221 189.6868045 -158.65935983 187.3933567 -155.4375 185.0625 C-154.32682788 184.26431601 -153.21615082 183.46613889 -152.10546875 182.66796875 C-151.56067871 182.27528809 -151.01588867 181.88260742 -150.45458984 181.47802734 C-147.39082916 179.27082078 -144.32058797 177.07269331 -141.25 174.875 C-140.68627686 174.46999268 -140.12255371 174.06498535 -139.54174805 173.64770508 C-137.94977611 172.50773055 -136.34998411 171.37870166 -134.75 170.25 C-133.7290625 169.51523438 -132.708125 168.78046875 -131.65625 168.0234375 C-128.75 166.25 -128.75 166.25 -123.75 165.25 C-123.255 174.655 -123.255 174.655 -122.75 184.25 C-117.58435543 184.98794922 -112.95495313 185.36556236 -107.8046875 185.234375 C-107.07178497 185.21787903 -106.33888245 185.20138306 -105.58377075 185.18438721 C-104.04583745 185.14713998 -102.50798001 185.10662887 -100.97021484 185.06298828 C-98.62475977 184.99999355 -96.27952812 184.95867804 -93.93359375 184.91796875 C-92.43225652 184.87893346 -90.93095203 184.83861299 -89.4296875 184.796875 C-88.73374481 184.78734802 -88.03780212 184.77782104 -87.32077026 184.76800537 C-82.99635791 184.61664332 -80.20089805 183.8861471 -76.75 181.25 C-75.27341363 178.97353497 -75.27341363 178.97353497 -74.375 176.375 C-74.03726563 175.53195313 -73.69953125 174.68890625 -73.3515625 173.8203125 C-72.63020566 170.73815147 -72.7036751 169.24402925 -73.75 166.25 C-75.29648345 163.99928911 -76.8413191 161.91780711 -78.5625 159.8125 C-79.44590992 158.71115636 -80.32743726 157.60829989 -81.20703125 156.50390625 C-81.63975342 155.96241943 -82.07247559 155.42093262 -82.51831055 154.86303711 C-83.67289919 153.35097226 -84.72027582 151.75872004 -85.7578125 150.1640625 C-87.85916582 147.09031823 -90.14657137 144.65605048 -92.8125 142.0625 C-94.09833984 140.80373047 -94.09833984 140.80373047 -95.41015625 139.51953125 C-96.18230469 138.77058594 -96.95445313 138.02164063 -97.75 137.25 C-98.75216215 136.25216684 -99.7532733 135.25326262 -100.75 134.25 C-105.90095596 137.12847539 -110.29942768 140.4367846 -114 145.0625 C-114.5775 145.784375 -115.155 146.50625 -115.75 147.25 C-116.41 147.25 -117.07 147.25 -117.75 147.25 C-120.05558999 135.79563272 -122.29049512 124.32878316 -124.5 112.85546875 C-124.7475 111.57285156 -124.995 110.29023437 -125.25 108.96875 C-125.49451904 107.7010376 -125.73903809 106.4333252 -125.9909668 105.12719727 C-126.51088237 102.4714304 -127.03881535 99.8188257 -127.58129883 97.16772461 C-127.71741577 96.49974854 -127.85353271 95.83177246 -127.99377441 95.14355469 C-128.37069197 93.30018329 -128.751263 91.45755999 -129.13208008 89.61499023 C-130.00720895 84.84932398 -130.45860141 80.08319731 -130.75 75.25 C-129.68652344 75.45753906 -128.62304688 75.66507812 -127.52734375 75.87890625 C-115.77888028 78.15284327 -104.0113995 80.32542934 -92.23733521 82.46237183 C-90.50906185 82.77670797 -88.7810891 83.09270189 -87.05343628 83.41043091 C-77.97526305 85.07811863 -68.98128935 86.70812409 -59.75 87.25 C-61.74629897 93.50507009 -65.0953872 96.80888836 -69.984375 101.13671875 C-71.99731199 103.04079721 -71.99731199 103.04079721 -71.58056641 105.18164062 C-70.55509627 107.73536872 -69.36513757 108.73820365 -67.2265625 110.45703125 C-61.76569104 115.02074215 -56.88458384 120.09689635 -51.9296875 125.19726562 C-48.1050872 129.08075923 -44.51229447 132.56011981 -39.75 135.25 C-37.32080135 135.38440778 -37.32080135 135.38440778 -34.75 134.25 C-34.03328125 134.12625 -33.3165625 134.0025 -32.578125 133.875 C-29.64619201 133.10848157 -28.02234417 132.27645618 -25.75 130.25 C-18.98794636 116.47411413 -21.39835317 98.16568648 -21.75 83.25 C-28.35 82.92 -34.95 82.59 -41.75 82.25 C-40.28417374 78.58543434 -39.1910619 76.1799503 -37.02734375 73.0625 C-36.49326904 72.287854 -35.95919434 71.51320801 -35.40893555 70.71508789 C-34.84086182 69.90160889 -34.27278809 69.08812988 -33.6875 68.25 C-33.10331299 67.40493896 -32.51912598 66.55987793 -31.91723633 65.68920898 C-30.19949529 63.20619154 -28.47558757 60.72756854 -26.75 58.25 C-25.14473608 55.93825874 -23.54110552 53.62539258 -21.9375 51.3125 C-21.23238281 50.29671875 -20.52726563 49.2809375 -19.80078125 48.234375 C-17.04841549 44.22902749 -14.36543218 40.17909552 -11.6796875 36.12890625 C-8.77041739 31.78855792 -5.76907661 27.51444571 -2.75 23.25 C0.8225282 23.856843 1.22103353 24.21503889 3.72265625 27.234375 C4.59716952 28.48178392 5.46010118 29.73737625 6.3125 31 C6.74626953 31.62132813 7.18003906 32.24265625 7.62695312 32.8828125 C9.44356828 35.50404715 11.18081763 38.13377362 12.8125 40.875 C14.44141512 43.56625106 16.27271487 46.00400448 18.1875 48.5 C22.12720723 53.71183675 25.96688262 58.98588885 29.75 64.3125 C30.54265259 65.41996582 30.54265259 65.41996582 31.35131836 66.54980469 C31.8438208 67.2462207 32.33632324 67.94263672 32.84375 68.66015625 C33.28396484 69.28027588 33.72417969 69.90039551 34.17773438 70.53930664 C35.25 72.25 35.25 72.25 36.25 75.25 C36.745 75.70375 37.24 76.1575 37.75 76.625 C39.25 78.25 39.25 78.25 40.25 83.25 C33.65 83.25 27.05 83.25 20.25 83.25 C20.18093219 88.8189117 20.12125816 94.3863227 20.08520508 99.95532227 C20.07016754 101.84762625 20.04973215 103.73989566 20.02368164 105.63208008 C19.98707601 108.36027586 19.9702231 111.08800871 19.95703125 113.81640625 C19.94154739 114.65522842 19.92606354 115.4940506 19.91011047 116.35829163 C19.90858537 121.74478351 20.66584583 125.49022168 23.25 130.25 C25.74902134 132.16325626 25.74902134 132.16325626 28.6875 133.25 C29.63496094 133.6625 30.58242187 134.075 31.55859375 134.5 C34.5317187 135.32850507 35.45743109 135.46484636 38.25 134.25 C40.56427864 132.82174349 42.77926985 131.37189183 45 129.8125 C45.90298828 129.20051758 45.90298828 129.20051758 46.82421875 128.57617188 C48.33960812 127.52295908 49.8002034 126.39181957 51.25 125.25 C51.25 124.59 51.25 123.93 51.25 123.25 C51.806875 123.04375 52.36375 122.8375 52.9375 122.625 C55.51293563 121.0936599 56.98326967 119.23345265 58.82421875 116.90234375 C60.86178323 114.5410019 63.1961756 112.61999605 65.6015625 110.64453125 C67.25437964 109.24629495 68.80608914 107.86455487 70.25 106.25 C70.25 103.18626756 69.14007466 102.13065249 67.0625 99.875 C66.134375 99.00875 65.20625 98.1425 64.25 97.25 C58.39736842 91.69210526 58.39736842 91.69210526 57.25 88.25 C57.90895264 88.14453857 58.56790527 88.03907715 59.24682617 87.93041992 C75.20972226 85.38479054 75.20972226 85.38479054 91 81.9609375 C95.8763154 80.89424351 100.80598979 80.18669665 105.7512207 79.51538086 C113.72252366 78.36096429 121.46353751 76.27107469 129.25 74.25 C128.31062182 80.08131435 127.36851548 85.91217962 126.42407227 91.74267578 C126.10434429 93.7187968 125.78531264 95.69503062 125.46704102 97.67138672 C123.73465243 108.42583681 121.95384865 119.16063359 119.89257812 129.85742188 C118.9235211 134.97368952 118.07759013 140.10920483 117.25 145.25 C111.5 144.53125 111.5 144.53125 109.25 142 C108.59 141.0925 107.93 140.185 107.25 139.25 C105.31661713 137.48411317 103.30117981 135.8816203 101.25 134.25 C98.35147635 135.56307372 96.26722783 136.97684638 94.015625 139.21875 C93.44199219 139.78980469 92.86835938 140.36085937 92.27734375 140.94921875 C91.69082031 141.54347656 91.10429687 142.13773438 90.5 142.75 C89.89800781 143.34425781 89.29601562 143.93851563 88.67578125 144.55078125 C88.10730469 145.12183594 87.53882813 145.69289062 86.953125 146.28125 C86.17437012 147.06338867 86.17437012 147.06338867 85.37988281 147.86132812 C84.03962453 149.21018269 84.03962453 149.21018269 84.25 151.25 C83.66347656 151.46914062 83.07695312 151.68828125 82.47265625 151.9140625 C79.54085099 153.67623719 78.43813243 155.70336289 76.6875 158.625 C73.35598144 164.13053846 73.35598144 164.13053846 71.46875 166.2578125 C69.98564672 168.24109401 69.98564672 168.24109401 70.47265625 170.90625 C70.88837891 172.31390625 70.88837891 172.31390625 71.3125 173.75 C71.57160156 174.6884375 71.83070313 175.626875 72.09765625 176.59375 C73.42036938 179.64271585 74.71911384 181.10721772 77.25 183.25 C85.33805324 185.94414959 94.440506 185.53530504 102.86279297 185.45581055 C104.90734977 185.43720563 106.95145994 185.43530399 108.99609375 185.43554688 C115.30835896 185.76298939 115.30835896 185.76298939 121.25 184.25 C121.58 177.98 121.91 171.71 122.25 165.25 C128.01715287 166.89775796 131.22730674 168.29049692 135.75 171.75 C136.97235736 172.65451132 138.1963739 173.5567839 139.421875 174.45703125 C140.04900391 174.91932129 140.67613281 175.38161133 141.32226562 175.85791016 C144.4870209 178.14329954 147.74074391 180.29004042 151 182.4375 C155.18216194 185.20146542 159.34098819 187.98450127 163.4375 190.875 C167.16082579 193.49882018 170.91144309 196.07751663 174.6875 198.625 C175.67621094 199.29273438 176.66492188 199.96046875 177.68359375 200.6484375 C180.21880953 202.36958941 180.21880953 202.36958941 183.25 203.25 C181.82164607 206.730673 180.24060513 208.24775151 177.125 210.3125 C175.78888672 211.21355469 175.78888672 211.21355469 174.42578125 212.1328125 C173.37777344 212.83148438 172.32976562 213.53015625 171.25 214.25 C168.5987671 216.05464999 165.9554754 217.87078482 163.3125 219.6875 C162.26896362 220.40317139 162.26896362 220.40317139 161.2043457 221.13330078 C157.36963707 223.76901575 153.56809942 226.43950042 149.8125 229.1875 C148.966875 229.80496094 148.12125 230.42242187 147.25 231.05859375 C145.56392598 232.29021813 143.87848829 233.52271855 142.1953125 234.75830078 C139.90787797 236.43182825 137.61097329 238.09167541 135.3125 239.75 C134.57781494 240.29132568 133.84312988 240.83265137 133.08618164 241.39038086 C132.03998657 242.14073608 132.03998657 242.14073608 130.97265625 242.90625 C130.35140869 243.35806641 129.73016113 243.80988281 129.09008789 244.27539062 C127.25 245.25 127.25 245.25 123.25 245.25 C123.18941406 243.96222656 123.12882812 242.67445313 123.06640625 241.34765625 C122.98201753 239.66925841 122.8973687 237.99087364 122.8125 236.3125 C122.75352539 235.03729492 122.75352539 235.03729492 122.69335938 233.73632812 C122.65146484 232.92744141 122.60957031 232.11855469 122.56640625 231.28515625 C122.52974854 230.5362915 122.49309082 229.78742676 122.45532227 229.01586914 C122.43228937 227.22538674 122.43228937 227.22538674 121.25 226.25 C107.47609902 225.24782001 88.05044752 223.84977624 75.25 230.25 C73.84713644 232.90644317 73.84713644 232.90644317 72.5625 236.0625 C72.10488281 237.12082031 71.64726562 238.17914063 71.17578125 239.26953125 C70.22486609 242.33091636 69.97397869 243.38193341 71.25 246.25 C75.39684119 252.64454931 80.78318282 257.99255029 86.25 263.25 C91.25 268.25 91.25 268.25 93.19140625 270.3671875 C93.89136719 271.11226563 94.59132813 271.85734375 95.3125 272.625 C95.96347656 273.33398438 96.61445313 274.04296875 97.28515625 274.7734375 C99.0981884 276.43373437 99.0981884 276.43373437 101.18359375 276.296875 C105.17109801 274.27674051 107.84367705 270.57220301 110.8125 267.3046875 C111.616875 266.62664062 112.42125 265.94859375 113.25 265.25 C115.40234375 265.62158203 115.40234375 265.62158203 117.25 266.25 C117.3951001 267.03084961 117.5402002 267.81169922 117.68969727 268.61621094 C121.76460656 290.51626883 125.97165231 312.38882642 130.25 334.25 C133.9029176 330.68548978 136.68758708 327.28538668 139.375 322.9375 C143.20686671 316.81802532 147.2235582 310.85270029 151.35595703 304.93237305 C154.46687913 300.45645451 157.39776027 295.89459816 160.25 291.25 C160.89582031 290.21359375 161.54164063 289.1771875 162.20703125 288.109375 C168.08060328 278.26650482 172.25638337 267.97463139 176.25 257.25 C176.50410645 256.58887207 176.75821289 255.92774414 177.02001953 255.24658203 C181.05686483 244.69580012 182.96761461 233.96148392 184.79199219 222.85400391 C185.24086618 220.30193034 185.78327285 217.7843623 186.33984375 215.25390625 C191.70064793 188.66358779 185.09023096 158.34211952 176.25 133.25 C175.7593622 131.78029952 175.26971404 130.31026813 174.78125 128.83984375 C171.40409438 118.98501999 166.63628392 110.14261089 161.25 101.25 C160.35087891 99.75146484 160.35087891 99.75146484 159.43359375 98.22265625 C153.29506187 88.29561049 146.28246377 79.11591343 138.359375 70.55078125 C136.45964982 68.4786736 134.66773619 66.35158869 132.875 64.1875 C128.53052517 59.22805385 123.46067052 55.26169783 118.25 51.25 C117.68216797 50.81252441 117.11433594 50.37504883 116.52929688 49.92431641 C100.61290846 37.74455563 83.8679285 28.1593498 65.13623047 20.97753906 C63.37798504 20.29936518 61.6280625 19.59972147 59.87890625 18.8984375 C13.39781095 1.05057288 -41.02806511 7.64583351 -84.48510742 30.13671875 Z M-10.75 117.25 C-12.59169618 122.77508855 -13.40973949 127.59945763 -14.08984375 133.32421875 C-14.81392684 136.53332075 -15.30585722 137.2012129 -17.75 139.25 C-20.75182427 140.87192076 -23.91517451 142.12393698 -27.0625 143.4375 C-27.90490234 143.80552734 -28.74730469 144.17355469 -29.61523438 144.55273438 C-38.13610524 148.14362522 -38.13610524 148.14362522 -42.75 147.25 C-45.3389362 145.81765847 -47.6190102 144.08103784 -49.9375 142.25 C-54.32948498 138.49417973 -54.32948498 138.49417973 -59.75 137.25 C-61.52098198 138.87782095 -61.52098198 138.87782095 -63.1875 141 C-65.14201497 143.35703716 -66.9677967 145.44601703 -69.25 147.5 C-70.96316214 149.08385923 -70.96316214 149.08385923 -70.62890625 150.9609375 C-69.13729618 154.84575307 -66.42277699 158.02045204 -63.90039062 161.296875 C-61.11267139 165.1092936 -60.070371 167.54923277 -60.75 172.25 C-61.73828125 174.92578125 -61.73828125 174.92578125 -63.0625 177.5625 C-64.85381791 181.16974183 -66.01653666 184.31511671 -66.8125 188.25 C-67.49609375 190.44140625 -67.49609375 190.44140625 -68.75 192.25 C-72.62728643 194.01240292 -76.56050648 194.61303127 -80.75 195.25 C-86.17729634 195.95855103 -86.17729634 195.95855103 -90.75 198.25 C-90.90322744 201.07586751 -90.98162755 203.86043882 -91 206.6875 C-91.020625 207.47705078 -91.04125 208.26660156 -91.0625 209.08007812 C-91.11473586 211.63938608 -91.11473586 211.63938608 -90.75 215.25 C-87.83876338 217.19082441 -86.62506021 217.61072936 -83.30078125 218.1015625 C-82.45322266 218.23046875 -81.60566406 218.359375 -80.73242188 218.4921875 C-79.85134766 218.61851562 -78.97027344 218.74484375 -78.0625 218.875 C-77.16982422 219.0090625 -76.27714844 219.143125 -75.35742188 219.28125 C-73.15585573 219.61089627 -70.95349353 219.93353914 -68.75 220.25 C-68.49645752 221.21679688 -68.49645752 221.21679688 -68.23779297 222.203125 C-66.5710303 228.45049679 -64.04765571 233.77317803 -60.859375 239.390625 C-59.47126578 242.96842764 -59.59973928 244.598156 -60.75 248.25 C-62.61016061 251.13013715 -64.5731254 253.79225776 -66.6875 256.48242188 C-68.536254 258.96410917 -69.72341249 260.68565874 -69.87109375 263.8203125 C-68.32825046 267.1640356 -65.9499105 269.23462599 -63.1875 271.5625 C-62.66736328 272.01689453 -62.14722656 272.47128906 -61.61132812 272.93945312 C-60.33322934 274.05339243 -59.04279345 275.15314888 -57.75 276.25 C-53.63854738 274.83993502 -50.75745821 272.82902819 -47.375 270.125 C-44.0351398 267.66593292 -42.16040797 266.33347281 -38.0625 265.5 C-34.59886967 266.28421819 -32.01208074 267.45804833 -28.9375 269.1875 C-25.75242598 270.73453595 -22.41189464 271.37129226 -18.94921875 272.05078125 C-15.59669393 273.87888981 -14.81154703 276.77225469 -13.75 280.25 C-13.07124347 282.87900486 -12.54232084 285.51571073 -12.0625 288.1875 C-11.86817383 289.21327148 -11.86817383 289.21327148 -11.66992188 290.25976562 C-11.35610402 291.92183798 -11.05200834 293.58574127 -10.75 295.25 C-6.5890178 296.28826413 -2.83608899 296.30117251 1.4375 296.0625 C2.66855469 296.00707031 3.89960938 295.95164062 5.16796875 295.89453125 C8.25600953 295.57933945 8.25600953 295.57933945 9.609375 293.63671875 C10.44582795 290.52042148 10.90888593 287.45177884 11.3125 284.25 C12.28428748 276.6684514 12.28428748 276.6684514 13.25 273.25 C13.8790625 273.15203125 14.508125 273.0540625 15.15625 272.953125 C19.57381832 272.18138114 23.42183951 271.35307596 27.375 269.1875 C31.29884345 267.12355834 34.75184716 265.61208014 39.25 266.25 C43.67996786 268.27092189 47.59298336 270.92317497 51.38671875 273.9609375 C53.22446975 275.51167277 53.22446975 275.51167277 55.8125 275.125 C58.39094819 274.19940321 59.60249785 273.41776599 61.25 271.25 C61.25 270.59 61.25 269.93 61.25 269.25 C61.848125 269.0025 62.44625 268.755 63.0625 268.5 C65.68169935 267.00331466 66.89511591 265.95976818 68.25 263.25 C67.53776153 260.02825456 67.53776153 260.02825456 66.25 257.25 C65.59 257.25 64.93 257.25 64.25 257.25 C63.981875 256.6725 63.71375 256.095 63.4375 255.5 C62.33281465 253.22016324 62.33281465 253.22016324 60.70703125 251.390625 C58.10560433 247.56868947 58.5934565 243.69382685 59.25 239.25 C60.58677437 235.07523242 62.28463886 231.16520628 64.25 227.25 C64.50265625 226.63584229 64.7553125 226.02168457 65.015625 225.38891602 C66.29596502 222.6135361 67.19613538 220.68994533 70.09863281 219.47827148 C72.32060305 219.03024409 74.4921118 218.75992146 76.75 218.5625 C82.54606226 218.01251626 82.54606226 218.01251626 87.78515625 215.67578125 C89.89707362 212.17844609 89.55547526 209.04306039 89.1875 205.125 C89.14689453 204.39667969 89.10628906 203.66835937 89.06445312 202.91796875 C88.92003567 200.55155635 88.92003567 200.55155635 88.25 197.25 C84.61692567 194.82795044 81.41271047 194.6171191 77.1875 194.1875 C69.48575419 193.36787709 69.48575419 193.36787709 67.25 192.25 C65.41548982 189.04002 63.99502678 185.62866909 62.5 182.25 C62.06300781 181.32832031 61.62601563 180.40664062 61.17578125 179.45703125 C58.69961653 173.84808305 57.76252127 170.08150856 59.45556641 164.11889648 C60.60014651 161.4262841 62.29473083 159.40079609 64.25 157.25 C64.25 156.59 64.25 155.93 64.25 155.25 C64.91 155.25 65.57 155.25 66.25 155.25 C67.24 152.28 67.24 152.28 68.25 149.25 C67.5075 148.528125 66.765 147.80625 66 147.0625 C63.25 144.25 63.25 144.25 61.125 141.5625 C59.28438927 139.05846331 59.28438927 139.05846331 56.25 137.25 C54.93 137.25 53.61 137.25 52.25 137.25 C52.25 137.91 52.25 138.57 52.25 139.25 C51.67894531 139.51425781 51.10789063 139.77851563 50.51953125 140.05078125 C47.34646269 141.72742849 44.60570283 143.92525115 41.76171875 146.10546875 C38.19495683 147.7307584 36.03076309 147.14363491 32.25 146.25 C29.84523052 145.32387434 27.46866208 144.32138838 25.125 143.25 C21.15266215 141.44202128 17.57776986 139.90324828 13.25 139.25 C12.60312193 136.52107717 11.95746282 133.79187553 11.3125 131.0625 C11.03889648 129.90911133 11.03889648 129.90911133 10.75976562 128.73242188 C10.58251953 127.98154297 10.40527344 127.23066406 10.22265625 126.45703125 C10.06031494 125.7710083 9.89797363 125.08498535 9.73071289 124.37817383 C9.19602141 122.01103026 8.72593081 119.62965407 8.25 117.25 C1.98 117.25 -4.29 117.25 -10.75 117.25 Z " fill="#061824" transform="translate(194.75,-0.25)"/>
<path d="M0 0 C7.63460539 7.10018301 13.52453855 17.25264272 14.265625 27.76953125 C14.27422132 29.11717015 14.26859115 30.46496192 14.25 31.8125 C14.24323242 32.51955078 14.23646484 33.22660156 14.22949219 33.95507812 C14.12574197 39.21014718 13.72440179 44.02847904 12 49 C11.78988281 49.62519531 11.57976562 50.25039062 11.36328125 50.89453125 C7.45511067 60.25507639 -1.26271946 69.19267136 -10.54296875 73.109375 C-11.35378906 73.40328125 -12.16460937 73.6971875 -13 74 C-13.80050781 74.31453125 -14.60101563 74.6290625 -15.42578125 74.953125 C-27.55662698 79.2095621 -39.49530944 77.10897002 -51 72 C-54.42540773 70.01229861 -57.19348901 67.78326867 -60 65 C-60.94939453 64.08927734 -60.94939453 64.08927734 -61.91796875 63.16015625 C-70.5351431 54.17551178 -73.34839914 43.69848367 -73.2109375 31.546875 C-72.61993876 21.60934071 -70.21844925 13.77306156 -64 6 C-63.28070313 4.96939453 -63.28070313 4.96939453 -62.546875 3.91796875 C-56.24966262 -4.39880417 -45.41086618 -9.28168626 -35.23046875 -10.79296875 C-21.9545883 -12.02523086 -10.49845541 -8.20889865 0 0 Z M-49 7 C-49 7.66 -49 8.32 -49 9 C-49.5775 9.2475 -50.155 9.495 -50.75 9.75 C-56.25754603 12.80974779 -58.29327694 17.03140647 -60.234375 22.80078125 C-62.47929852 32.18135451 -61.94288717 41.61604683 -57 50 C-51.57224022 57.79123998 -44.44300636 63.23943949 -35 65 C-24.95825531 66.02146073 -16.51563551 63.70554008 -8.1875 58 C-1.91911371 52.65608795 1.75977711 46.04011013 2.50390625 37.796875 C2.95303815 28.1346437 1.40937318 20.55601555 -3.6875 12.25 C-10.71825907 5.40926145 -19.20097353 1.01765352 -29.125 0.6875 C-36.65613218 1.29484937 -42.35677486 3.44112939 -49 7 Z " fill="#061824" transform="translate(223,173)"/>
</svg>
