<?xml version="1.0" encoding="UTF-8"?>
<svg version="1.1" xmlns="http://www.w3.org/2000/svg" width="640" height="617">
<path d="M0 0 C211.2 0 422.4 0 640 0 C640 203.61 640 407.22 640 617 C428.8 617 217.6 617 0 617 C0 413.39 0 209.78 0 0 Z " fill="transparent" transform="translate(0,0)"/>
<path d="M0 0 C2.39575831 0.91890081 3.62448102 1.97802338 5.43327999 3.79158688 C6.40074154 4.75069469 6.40074154 4.75069469 7.38774776 5.72917843 C8.08402279 6.43466824 8.78029781 7.14015804 9.49767208 7.86702633 C10.23952755 8.60683743 10.98138302 9.34664852 11.74571896 10.10887814 C14.19867755 12.55882576 16.6407192 15.0193551 19.08263302 17.48030758 C20.78027218 19.18100334 22.47850183 20.88110987 24.17729855 22.58064938 C27.7359438 26.1438994 31.28961731 29.71200819 34.83946896 33.28401852 C39.40168789 37.87456283 43.97257998 42.45634509 48.54674816 47.03497982 C52.05238621 50.54476356 55.5551832 54.05737019 59.05692959 57.57103634 C60.74226458 59.2620884 62.42808204 60.95265977 64.11437893 62.64275265 C66.46354096 64.99874873 68.8092751 67.35810051 71.15392208 69.71858883 C71.85829403 70.42407864 72.56266598 71.12956844 73.28838253 71.85643673 C73.9220776 72.49584194 74.55577267 73.13524715 75.20867062 73.79402828 C75.76392548 74.3522578 76.31918034 74.91048733 76.8912611 75.4856329 C78.06700802 76.79280758 78.06700802 76.79280758 78.06700802 77.79280758 C63.54700802 77.79280758 49.02700802 77.79280758 34.06700802 77.79280758 C34.39700802 122.01280758 34.72700802 166.23280758 35.06700802 211.79280758 C49.15388302 197.72655758 63.24075802 183.66030758 77.75450802 169.16780758 C84.42093502 162.51503658 84.42093502 162.51503658 91.22203732 155.72786617 C95.21398609 151.73926246 95.21398609 151.73926246 99.20526791 147.74999142 C100.97912644 145.9776654 102.7539738 144.20632873 104.52960873 142.43578243 C107.22370202 139.74902244 109.91461111 137.05911001 112.60484982 134.36849117 C113.39253844 133.58440065 114.18022707 132.80031013 114.99178505 131.9924593 C118.90339186 128.07346112 122.6074646 124.11745779 126.06700802 119.79280758 C125.47506649 119.52552853 124.88312496 119.25824947 124.27324581 118.98287106 C122.03334361 117.77464871 120.56272254 116.54203827 118.76720333 114.75179195 C118.14686214 114.13775509 117.52652096 113.52371822 116.88738155 112.89107418 C116.22993954 112.2295837 115.57249752 111.56809322 114.89513302 110.88655758 C114.21271542 110.20605343 113.53029781 109.52554928 112.82720089 108.82442379 C111.38921375 107.38779561 109.9537411 105.94864673 108.5206213 104.50716305 C106.31823774 102.29404329 104.10535869 100.09182286 101.89122677 97.89046383 C100.49605348 96.49396955 99.1015004 95.09685531 97.70763302 93.69905758 C97.04209408 93.0375671 96.37655514 92.37607662 95.69084835 91.69454098 C94.77924953 90.77348568 94.77924953 90.77348568 93.84923458 89.8338232 C93.31058773 89.29358517 92.77194088 88.75334713 92.2169714 88.19673824 C91.06700802 86.79280758 91.06700802 86.79280758 91.06700802 84.79280758 C127.69700802 84.79280758 164.32700802 84.79280758 202.06700802 84.79280758 C202.06700802 121.42280758 202.06700802 158.05280758 202.06700802 195.79280758 C197.56956835 191.93785929 193.27958463 188.14681651 189.13341427 183.95687008 C188.3492136 183.17054699 188.3492136 183.17054699 187.54917049 182.36833858 C185.90688457 180.72052888 184.26814152 179.06924857 182.62950802 177.41780758 C181.50539335 176.28866803 180.38104628 175.1597598 179.25646114 174.03108883 C176.52395567 171.2876557 173.79461793 168.54110773 171.06700802 165.79280758 C165.41312681 170.49684286 160.19808689 175.5253844 155.01061153 180.73567867 C154.11767108 181.62849859 153.22473063 182.52131851 152.30473137 183.44119358 C149.9078492 185.83785168 147.51397179 188.23748916 145.12074184 190.63779354 C142.86756387 192.89670233 140.6116381 195.15286235 138.35594845 197.40926266 C131.77773074 203.99271004 125.20388114 210.5805209 118.62950802 217.16780758 C96.57107052 239.25718258 96.57107052 239.25718258 74.06700802 261.79280758 C118.94700802 262.12280758 163.82700802 262.45280758 210.06700802 262.79280758 C210.06700802 246.29280758 210.06700802 229.79280758 210.06700802 212.79280758 C217.94200802 219.54280758 217.94200802 219.54280758 220.60422421 222.20976925 C221.21125179 222.81542217 221.81827938 223.4210751 222.44370174 224.04508114 C223.08243725 224.68741192 223.72117275 225.3297427 224.37926388 225.99153805 C225.41955242 227.03160755 225.41955242 227.03160755 226.4808569 228.09268856 C228.75023642 230.36275929 231.01606297 232.63634088 233.28185177 234.90999508 C234.86346566 236.49347597 236.44530191 238.07673479 238.02735043 239.65978146 C242.17397447 243.8102085 246.31758553 247.96363078 250.46056271 252.11769772 C254.69539023 256.36278718 258.93307921 260.60501808 263.17052364 264.84749508 C271.47214457 273.1598142 279.77058324 281.47530247 288.06700802 289.79280758 C286.73403882 292.75113941 285.27720432 294.83211918 282.98593807 297.12111568 C282.35357235 297.7576759 281.72120663 298.39423611 281.06967831 299.05008602 C280.37713451 299.73701031 279.68459072 300.42393459 278.97106075 301.13167477 C278.2408572 301.86377666 277.51065365 302.59587856 276.75832272 303.35016537 C274.34394124 305.76825117 271.92243575 308.17906265 269.50060177 310.58968258 C267.82397292 312.26511959 266.14771326 313.94092613 264.47180843 315.61708736 C260.96015909 319.12717257 257.44517419 322.63387118 253.92760372 326.13802242 C249.40718418 330.64141955 244.89340832 335.15140444 240.38187218 339.66369915 C236.92249628 343.12280389 233.46052614 346.57930203 229.99765873 350.03491116 C228.33159268 351.69778423 226.66614114 353.36127321 225.00130177 355.02537441 C222.68123109 357.34329002 220.35790576 359.65789018 218.03356075 361.97151852 C216.99170872 363.01405033 216.99170872 363.01405033 215.92880917 364.07764339 C215.29926327 364.70292431 214.66971737 365.32820522 214.02109432 365.97243404 C213.47153796 366.52031456 212.9219816 367.06819508 212.35577202 367.63267803 C211.06700802 368.79280758 211.06700802 368.79280758 210.06700802 368.79280758 C210.06700802 354.27280758 210.06700802 339.75280758 210.06700802 324.79280758 C166.83700802 324.79280758 123.60700802 324.79280758 79.06700802 324.79280758 C82.61347432 329.04856714 84.97301748 331.53860997 89.06700802 334.79280758 C90.42087738 336.44283586 91.75378944 338.11024628 93.06700802 339.79280758 C95.781917 342.65446839 98.60661357 345.2672697 101.62950802 347.79280758 C103.70446923 349.54272122 105.30282511 351.08948069 107.00450802 353.23030758 C108.76091952 355.41251581 110.34160474 356.94315029 112.46349239 358.72664547 C118.17822962 363.67649822 123.45676776 369.0582389 128.78575802 374.41390133 C129.89511635 375.52512881 131.00469869 376.6361327 132.11449337 377.7469244 C135.01003418 380.64625129 137.90255709 383.5485703 140.79442501 386.45156002 C143.75583666 389.42327064 146.72014356 392.39209025 149.68419552 395.36116695 C155.48127612 401.16891578 161.27516621 406.97983431 167.06700802 412.79280758 C169.95660056 411.4837399 172.02270036 410.08615163 174.25914669 407.84358883 C174.85623943 407.24957272 175.45333218 406.6555566 176.06851864 406.04354 C177.01716541 405.08411495 177.01716541 405.08411495 177.98497677 404.10530758 C178.64282665 403.44699947 179.30067654 402.78869137 179.97846127 402.11043453 C181.36508794 400.72079164 182.74928823 399.32872396 184.131217 397.93440914 C186.25186419 395.79547421 188.38043588 393.6646809 190.51036739 391.53499508 C191.85654402 390.18390419 193.20226308 388.83235722 194.54747677 387.48030758 C195.18598064 386.84069088 195.82448452 386.20107418 196.482337 385.54207516 C197.06997326 384.94805904 197.65760952 384.35404293 198.26305294 383.74202633 C198.78171429 383.21955318 199.30037563 382.69708004 199.83475399 382.15877438 C201.17951958 380.79032785 201.17951958 380.79032785 202.06700802 378.79280758 C202.72700802 378.79280758 203.38700802 378.79280758 204.06700802 378.79280758 C204.06700802 415.75280758 204.06700802 452.71280758 204.06700802 490.79280758 C167.43700802 490.79280758 130.80700802 490.79280758 93.06700802 490.79280758 C95.19498679 486.53685003 97.83025674 483.77486019 101.16857052 480.49593258 C102.0632655 479.60548244 102.0632655 479.60548244 102.97603512 478.69704342 C104.87670611 476.80754131 106.78422276 474.92512366 108.69200802 473.04280758 C109.9841327 471.76071693 111.27580478 470.47816996 112.56700802 469.19515133 C115.7284528 466.05572326 118.89605411 462.92262957 122.06700802 459.79280758 C120.63606956 456.52917782 118.88829937 454.36665735 116.37178707 451.8570776 C115.60494783 451.08748337 114.8381086 450.31788914 114.04803181 449.52497387 C113.20270704 448.68684532 112.35738228 447.84871677 111.48644161 446.98519039 C110.58419165 446.08269936 109.68194168 445.18020832 108.75235081 444.25036907 C106.31414469 441.81171188 103.86997106 439.37912057 101.42450619 436.94774532 C99.12974797 434.66438639 96.84042777 432.37559366 94.5506506 430.08724117 C87.85321974 423.4003003 81.14708183 416.72208474 74.44200802 410.04280758 C59.46825802 395.11030758 44.49450802 380.17780758 29.06700802 364.79280758 C28.73700802 409.34280758 28.40700802 453.89280758 28.06700802 499.79280758 C44.56700802 499.79280758 61.06700802 499.79280758 78.06700802 499.79280758 C74.46154126 503.99918546 71.03888367 507.94516229 67.15074825 511.82259274 C66.22636456 512.7469009 65.30198086 513.67120907 64.34958553 514.62352657 C63.35831013 515.60969387 62.36698091 516.59580707 61.37560177 517.58187008 C60.3421835 518.61341829 59.30898947 519.6451912 58.27600765 520.67717648 C55.57256989 523.37682256 52.86614521 526.07345422 50.15904903 528.76943111 C47.41106256 531.50717903 44.66590665 534.24776187 41.92052364 536.98812008 C37.08666415 541.81244902 32.25035135 546.63430425 27.4122076 551.45433712 C26.63829174 552.22603237 25.86437588 552.99772762 25.06700802 553.79280758 C24.19355236 554.65433437 23.3200967 555.51586117 22.42017269 556.40349483 C19.96740271 558.81802198 19.96740271 558.81802198 17.62950802 561.79280758 C14.9994957 564.87184639 12.20450462 567.24359159 9.06700802 569.79280758 C6.78332293 572.02338371 4.54819758 574.21538011 2.50450802 576.66780758 C2.03013302 577.03905758 1.55575802 577.41030758 1.06700802 577.79280758 C-2.26498816 577.35964922 -3.92227553 576.1772606 -6.26130009 573.83199215 C-6.8978603 573.20100109 -7.53442051 572.57001003 -8.19027042 571.91989803 C-9.22065685 570.87568943 -9.22065685 570.87568943 -10.27185917 569.8103857 C-11.00396107 569.08032818 -11.73606297 568.35027065 -12.49034977 567.59809017 C-14.9108435 565.18060722 -17.3204185 562.75254533 -19.72986698 560.32405758 C-21.40508588 558.64578206 -23.0808953 556.96809579 -24.75727177 555.29097652 C-28.26883896 551.77480469 -31.77543381 548.253775 -35.27820683 544.72884274 C-39.77989143 540.19883219 -44.29024912 535.67758482 -48.80388355 531.15948391 C-52.26319851 527.69602324 -55.7196723 524.22973982 -59.17509556 520.76239681 C-60.83810188 519.09367349 -62.50159064 517.4254308 -64.16555882 515.75766659 C-66.48358801 513.43280328 -68.79818885 511.10458477 -71.11170292 508.77522945 C-71.80672413 508.07909039 -72.50174534 507.38295132 -73.2178278 506.66571712 C-73.84310871 506.03472607 -74.46838963 505.40373501 -75.11261845 504.75362301 C-75.66049896 504.20276783 -76.20837948 503.65191265 -76.77286243 503.08436489 C-77.93299198 501.79280758 -77.93299198 501.79280758 -77.93299198 500.79280758 C-63.41299198 500.79280758 -48.89299198 500.79280758 -33.93299198 500.79280758 C-33.93299198 454.26280758 -33.93299198 407.73280758 -33.93299198 359.79280758 C-34.59299198 359.79280758 -35.25299198 359.79280758 -35.93299198 359.79280758 C-36.18521204 360.37006714 -36.4374321 360.9473267 -36.69729519 361.54207897 C-38.08847302 364.07600458 -39.65789479 365.7637349 -41.70414066 367.80446529 C-42.48940632 368.59248028 -43.27467197 369.38049526 -44.08373356 370.19238949 C-44.94616169 371.04762707 -45.80858982 371.90286465 -46.69715214 372.78401852 C-47.60452625 373.69168468 -48.51190037 374.59935085 -49.44677067 375.53452206 C-51.93178401 378.02010895 -54.42291322 380.49948335 -56.91518545 382.97778893 C-59.51994212 385.57003874 -62.11903197 388.16795761 -64.71872807 390.76528072 C-69.64102414 395.6813619 -74.56839601 400.5923228 -79.4976114 405.50146508 C-85.10971799 411.09121298 -90.71614314 416.68664446 -96.32209802 422.28256083 C-107.85275226 433.79231286 -119.39052112 445.29490554 -130.93299198 456.79280758 C-126.45761909 462.10412103 -126.45761909 462.10412103 -121.68152714 467.14192867 C-121.12139927 467.69875332 -120.5612714 468.25557796 -119.98416996 468.82927608 C-119.40267185 469.40247585 -118.82117374 469.97567562 -118.22205448 470.56624508 C-117.60905491 471.17545803 -116.99605534 471.78467098 -116.36448002 472.41234493 C-114.43142173 474.3333083 -112.49512234 476.2509512 -110.55799198 478.16780758 C-107.98484998 480.71445486 -105.41497649 483.26433559 -102.84705448 485.81624508 C-101.95658924 486.69426281 -101.95658924 486.69426281 -101.0481348 487.59001827 C-99.65749855 488.97216699 -98.29231519 490.37985157 -96.93299198 491.79280758 C-96.93299198 492.12280758 -96.93299198 492.45280758 -96.93299198 492.79280758 C-133.56299198 492.79280758 -170.19299198 492.79280758 -207.93299198 492.79280758 C-207.93299198 456.16280758 -207.93299198 419.53280758 -207.93299198 381.79280758 C-203.43555232 385.64775586 -199.14556859 389.43879865 -194.99939823 393.62874508 C-194.21519756 394.41506817 -194.21519756 394.41506817 -193.41515446 395.21727657 C-191.77286853 396.86508628 -190.13412548 398.51636659 -188.49549198 400.16780758 C-187.37137732 401.29694713 -186.24703025 402.42585536 -185.12244511 403.55452633 C-182.38993963 406.29795946 -179.6606019 409.04450743 -176.93299198 411.79280758 C-173.98405559 410.37740928 -171.91038326 409.01781533 -169.62049198 406.66780758 C-169.08810917 406.12897945 -168.55572636 405.59015133 -168.00721073 405.03499508 C-166.22488949 403.10834274 -164.51197462 401.14600234 -162.80053043 399.15694332 C-159.02521186 394.83834375 -155.04333597 390.76889477 -150.978158 386.7244482 C-150.20416377 385.95033344 -149.43016954 385.17621868 -148.63272095 384.3786459 C-146.15310816 381.89977317 -143.67009149 379.42434301 -141.18689823 376.94905758 C-139.64496348 375.40859506 -138.10325522 373.86790578 -136.56177616 372.32698727 C-130.87575345 366.64618485 -125.18536295 360.9697556 -119.49549198 355.29280758 C-106.76986698 342.58780758 -94.04424198 329.88280758 -80.93299198 316.79280758 C-147.75799198 316.29780758 -147.75799198 316.29780758 -215.93299198 315.79280758 C-215.93299198 331.96280758 -215.93299198 348.13280758 -215.93299198 364.79280758 C-223.80799198 358.04280758 -223.80799198 358.04280758 -226.47020817 355.37584591 C-227.38074955 354.46736652 -227.38074955 354.46736652 -228.30968571 353.54053402 C-228.94842121 352.89820324 -229.58715672 352.25587246 -230.24524784 351.59407711 C-230.93877354 350.90069744 -231.63229923 350.20731777 -232.34684086 349.4929266 C-234.61622038 347.22285587 -236.88204693 344.94927428 -239.14783573 342.67562008 C-240.72944963 341.09213919 -242.31128588 339.50888037 -243.89333439 337.9258337 C-248.03995843 333.77540666 -252.1835695 329.62198438 -256.32654667 325.46791744 C-260.5613742 321.22282798 -264.79906318 316.98059707 -269.03650761 312.73812008 C-277.33812853 304.42580096 -285.6365672 296.11031269 -293.93299198 287.79280758 C-292.60002279 284.83447575 -291.14318828 282.75349598 -288.85192204 280.46449947 C-287.90337345 279.50965916 -287.90337345 279.50965916 -286.93566227 278.53552914 C-285.89684658 277.50514271 -285.89684658 277.50514271 -284.83704472 276.45394039 C-284.10684116 275.72183849 -283.37663761 274.9897366 -282.62430668 274.23544979 C-280.2099252 271.81736399 -277.78841971 269.40655251 -275.36658573 266.99593258 C-273.68995689 265.32049556 -272.01369722 263.64468903 -270.3377924 261.96852779 C-266.82614305 258.45844259 -263.31115816 254.95174398 -259.79358768 251.44759274 C-255.27316814 246.9441956 -250.75939228 242.43421072 -246.24785614 237.92191601 C-242.78848024 234.46281127 -239.3265101 231.00631313 -235.86364269 227.550704 C-234.19757665 225.88783093 -232.5321251 224.22434194 -230.86728573 222.56024075 C-228.54721505 220.24232514 -226.22388972 217.92772498 -223.89954472 215.61409664 C-223.20497669 214.91907543 -222.51040867 214.22405422 -221.79479313 213.50797176 C-221.16524723 212.88269085 -220.53570133 212.25740993 -219.88707829 211.61318111 C-219.33752192 211.0653006 -218.78796556 210.51742008 -218.22175598 209.95293713 C-216.93299198 208.79280758 -216.93299198 208.79280758 -215.93299198 208.79280758 C-215.93299198 223.31280758 -215.93299198 237.83280758 -215.93299198 252.79280758 C-173.03299198 252.46280758 -130.13299198 252.13280758 -85.93299198 251.79280758 C-114.64299198 223.08280758 -143.35299198 194.37280758 -172.93299198 164.79280758 C-176.24220344 166.44741331 -177.7554413 167.37000712 -180.21692753 169.86556149 C-180.83404102 170.48605373 -181.45115452 171.10654598 -182.08696842 171.74584103 C-182.74127338 172.41360561 -183.39557835 173.0813702 -184.06971073 173.76937008 C-184.74975666 174.45461758 -185.42980259 175.13986507 -186.13045597 175.84587765 C-188.29860639 178.03182468 -190.4599416 180.22435053 -192.62049198 182.41780758 C-194.7926262 184.61751 -196.96618333 186.81575772 -199.142663 189.01116085 C-200.49647202 190.37728152 -201.84759996 191.74606503 -203.19585514 193.1176672 C-204.10734066 194.03894909 -204.10734066 194.03894909 -205.03724003 194.97884274 C-205.57366627 195.523522 -206.11009251 196.06820126 -206.66277409 196.62938595 C-207.93299198 197.79280758 -207.93299198 197.79280758 -208.93299198 197.79280758 C-208.93299198 161.49280758 -208.93299198 125.19280758 -208.93299198 87.79280758 C-172.63299198 87.79280758 -136.33299198 87.79280758 -98.93299198 87.79280758 C-102.77462869 92.27471707 -106.37421977 96.32220047 -110.58533573 100.36702633 C-111.61911263 101.37359884 -112.65229987 102.38077725 -113.68494511 103.3885107 C-115.28807439 104.94810492 -116.89464497 106.50339684 -118.51136112 108.04891109 C-120.0890964 109.56034502 -121.6506797 111.08697313 -123.21033573 112.61702633 C-124.14095829 113.51510006 -125.07158085 114.41317379 -126.03040409 115.33846188 C-128.1789681 117.56462638 -128.1789681 117.56462638 -127.83973026 119.98421383 C-126.57431657 122.50822693 -124.8996751 124.14573623 -122.87049198 126.10530758 C-122.13701542 126.82331539 -121.40353886 127.5413232 -120.64783573 128.28108883 C-118.55557328 130.2168079 -116.43943321 132.08428949 -114.27906132 133.94113827 C-109.90091267 137.76723258 -105.78092017 141.81088481 -101.68103886 145.93123531 C-100.88709972 146.72505391 -100.09316059 147.51887251 -99.2751627 148.33674622 C-96.7316795 150.88096973 -94.19163885 153.42859813 -91.65174198 155.97640133 C-90.07156587 157.55804959 -88.49116308 159.13947141 -86.91053104 160.72066402 C-81.08194269 166.55447361 -75.25772696 172.3926506 -69.43299198 178.23030758 C-56.39799198 191.28593258 -43.36299198 204.34155758 -29.93299198 217.79280758 C-29.60299198 171.59280758 -29.27299198 125.39280758 -28.93299198 77.79280758 C-45.10299198 77.79280758 -61.27299198 77.79280758 -77.93299198 77.79280758 C-76.94299198 76.14280758 -75.95299198 74.49280758 -74.93299198 72.79280758 C-74.27299198 72.79280758 -73.61299198 72.79280758 -72.93299198 72.79280758 C-72.66486698 72.15343258 -72.39674198 71.51405758 -72.12049198 70.85530758 C-70.93299198 68.79280758 -70.93299198 68.79280758 -67.93299198 67.79280758 C-67.60299198 66.80280758 -67.27299198 65.81280758 -66.93299198 64.79280758 C-66.27299198 64.79280758 -65.61299198 64.79280758 -64.93299198 64.79280758 C-64.59267948 63.92655758 -64.59267948 63.92655758 -64.24549198 63.04280758 C-62.58572853 60.1974988 -60.51232531 58.85627424 -57.93299198 56.79280758 C-56.92183984 55.67106939 -55.93363609 54.52848123 -54.96106815 53.37312984 C-50.1094384 47.76497692 -44.88732237 42.52316345 -39.67127323 37.25765133 C-39.14208979 36.72314421 -38.61290634 36.18863708 -38.06768703 35.63793278 C-35.27814925 32.82189985 -32.48510834 30.00939075 -29.68958378 27.19930172 C-27.38110413 24.87737685 -25.08015563 22.54835049 -22.7852869 20.21297359 C-20.00014094 17.37869963 -17.20309458 14.55672103 -14.39684963 11.74334049 C-13.33244362 10.67220935 -12.27230701 9.59681812 -11.2165556 8.51715565 C-9.74714931 7.01632295 -8.26295873 5.5318334 -6.77405643 4.05037594 C-5.93357258 3.20180523 -5.09308872 2.35323452 -4.22713566 1.47894955 C-1.93299198 -0.20719242 -1.93299198 -0.20719242 0 0 Z " fill="#061824" transform="translate(319.93299198150635,27.207192420959473)"/>
<path d="M0 0 C2.45172147 1.90562152 4.73719932 3.89463458 7.0078125 6.01171875 C7.77351563 6.6871875 8.53921875 7.36265625 9.328125 8.05859375 C22.56144746 20.34988308 29.37923863 36.7605222 30.28125 54.60546875 C30.8458829 74.07938105 25.42350161 91.44038217 12.46875 106.41796875 C1.57427335 117.90040128 -12.40165468 125.9360354 -27.9921875 129.01171875 C-29.0853125 129.23859375 -30.1784375 129.46546875 -31.3046875 129.69921875 C-50.20678318 131.30109127 -69.40134139 127.63676411 -84.41796875 115.328125 C-87.43211537 112.69855776 -90.21814502 109.89229128 -92.9921875 107.01171875 C-93.65605469 106.3671875 -94.31992187 105.72265625 -95.00390625 105.05859375 C-107.22644494 92.42405938 -111.95479238 75.03298169 -112.4921875 57.88671875 C-111.8479628 36.93902537 -102.85068037 19.43192365 -87.9296875 4.88671875 C-63.38664549 -16.78898595 -26.89418462 -17.87093991 0 0 Z " fill="#fff" transform="translate(357.9921875,259.98828125)"/>
<path d="M0 0 C3.47046417 1.31130657 5.97653735 2.64593603 8.00071716 5.75596619 C8.81789276 10.13731553 8.60270015 14.44135325 8.43821716 18.88096619 C8.40147888 20.84392639 8.40147888 20.84392639 8.36399841 22.84654236 C8.29589603 26.40461419 8.18908668 29.96049114 8.07218933 33.51725769 C7.95081451 37.31905705 7.85481773 41.12152926 7.75462341 44.92393494 C7.63502805 49.39527448 7.51034469 53.86617978 7.3578949 58.33653259 C7.02806979 68.14670053 6.94562987 77.94048091 7.00071716 87.75596619 C19.00118195 78.14097486 27.96227435 64.20809069 30.00071716 48.75596619 C31.02656706 34.15040628 30.05397142 20.01390896 21.85618591 7.39268494 C21.57388123 6.85256775 21.29157654 6.31245056 21.00071716 5.75596619 C21.33071716 5.09596619 21.66071716 4.43596619 22.00071716 3.75596619 C33.37504276 13.70850108 40.16691546 28.06907353 41.23899841 43.09580994 C41.61543328 61.34299464 36.07795305 76.02903333 23.54368591 89.30284119 C20.69921979 92.04681158 17.76496728 94.41883884 14.49681091 96.63487244 C12.84182799 97.70075509 12.84182799 97.70075509 12.00071716 99.75596619 C18.60071716 100.74596619 25.20071716 101.73596619 32.00071716 102.75596619 C26.84133015 106.19555753 21.44253932 105.89312415 15.37571716 105.88096619 C13.43825623 105.88483337 13.43825623 105.88483337 11.46165466 105.88877869 C8.73845031 105.78427649 6.5715561 105.57811265 4.00071716 104.75596619 C3.69134216 105.37471619 3.38196716 105.99346619 3.06321716 106.63096619 C2.37571716 108.00596619 1.68821716 109.38096619 1.00071716 110.75596619 C-2.16044059 109.38613116 -2.99199203 108.76690239 -4.99928284 105.75596619 C-7.20878512 105.37265037 -7.20878512 105.37265037 -9.76100159 105.53330994 C-10.71555237 105.55200134 -11.67010315 105.57069275 -12.65357971 105.58995056 C-13.65453674 105.62411072 -14.65549377 105.65827087 -15.68678284 105.69346619 C-22.21918901 105.89505718 -27.80328594 105.98305878 -33.99928284 103.75596619 C-33.99928284 103.09596619 -33.99928284 102.43596619 -33.99928284 101.75596619 C-32.73471252 101.63479431 -31.47014221 101.51362244 -30.16725159 101.38877869 C-28.50705085 101.21994471 -26.84689694 101.05064986 -25.18678284 100.88096619 C-24.35340393 100.80233337 -23.52002502 100.72370056 -22.66139221 100.64268494 C-21.85895081 100.55889587 -21.0565094 100.47510681 -20.22975159 100.38877869 C-19.12216492 100.27880554 -19.12216492 100.27880554 -17.99220276 100.16661072 C-15.69289631 99.82280839 -15.69289631 99.82280839 -12.99928284 97.75596619 C-13.54455627 97.35506775 -14.08982971 96.95416931 -14.65162659 96.54112244 C-27.586887 86.78992612 -38.52122464 75.42480923 -40.99928284 58.75596619 C-42.59076151 41.85567463 -41.29861296 26.65252916 -30.70631409 12.78330994 C-25.36367552 6.43816253 -25.36367552 6.43816253 -21.99928284 4.75596619 C-23.02635768 7.36644807 -24.08533051 9.95095243 -25.21803284 12.51768494 C-32.1137882 28.2643946 -33.79793155 44.92977168 -27.61256409 61.22080994 C-22.93925743 71.46134874 -16.55605135 82.38478718 -6.99928284 88.75596619 C-7.02957581 87.8760199 -7.05986877 86.99607361 -7.09107971 86.08946228 C-7.4397766 75.62453233 -7.71203371 65.15893473 -7.93562317 54.69059753 C-7.97891116 52.69507527 -8.02402263 50.69959191 -8.070755 48.70414734 C-8.21666764 42.43383093 -8.32813759 36.16440528 -8.39625549 29.89274597 C-8.42320299 27.84859182 -8.46074591 25.80454901 -8.50904846 23.76078796 C-8.57495494 20.87461399 -8.60218727 17.9904397 -8.62037659 15.10362244 C-8.64816696 14.24572617 -8.67595734 13.3878299 -8.70458984 12.50393677 C-8.68947918 8.06983488 -8.25884136 5.45057436 -5.21046448 2.10923767 C-1.99928284 -0.24403381 -1.99928284 -0.24403381 0 0 Z " fill="#061824" transform="translate(316.99928283691406,268.24403381347656)"/>
<path d="M0 0 C11.55241497 3.03014163 21.09766976 10.25830209 28 20 C29.97345092 23.56932833 31.55617193 27.18876153 33 31 C33.433125 32.11375 33.86625 33.2275 34.3125 34.375 C36.76923356 47.32868604 34.47785449 61.54032045 27.5546875 72.87109375 C23.40541311 78.55288908 18.77695435 83.93910239 13 88 C12.34 87.67 11.68 87.34 11 87 C11.54269531 85.97261719 12.08539063 84.94523437 12.64453125 83.88671875 C21.22517334 67.40253831 25.72131389 50.42213916 20.15625 31.94921875 C15.85362291 20.9746125 9.98125705 12.13845263 2.125 3.4140625 C0 1 0 1 0 0 Z " fill="#061824" transform="translate(345,271)"/>
<path d="M0 0 C0.99 0.33 1.98 0.66 3 1 C2.57589844 1.38929688 2.15179688 1.77859375 1.71484375 2.1796875 C-11.41861528 14.70698688 -19.84820967 31.06350901 -20.4375 49.3125 C-20.09439417 63.35124699 -14.84747681 75.50019704 -9 88 C-19.63720649 82.89778533 -26.09834991 72.89133602 -30 62 C-33.50727031 51.70692408 -33.95476755 38.49224155 -29.875 28.3125 C-28.97047591 26.51358654 -28.01422043 24.73942818 -27 23 C-26.54238281 22.18273437 -26.08476562 21.36546875 -25.61328125 20.5234375 C-19.39265355 10.33183375 -10.44312435 5.22156218 0 0 Z " fill="#061824" transform="translate(286,271)"/>
<path d="M0 0 C0.66 0.33 1.32 0.66 2 1 C1.7716978 4.95723818 1.54977482 7.32996194 -1 10.4375 C-5.59065069 12.8284639 -10.23881785 12.72560166 -15.21484375 11.41796875 C-15.80394531 11.28003906 -16.39304687 11.14210938 -17 11 C-17.33 11.33 -17.66 11.66 -18 12 C-22.78737606 12.6923891 -26.02748255 12.67480803 -30.0625 9.875 C-32.28517401 6.57683856 -32.45291114 4.89503578 -32 1 C-30.7315625 1.99 -30.7315625 1.99 -29.4375 3 C-25.48105255 5.30193306 -23.50117964 5.49103778 -19 5 C-16.16621868 4.1025173 -16.16621868 4.1025173 -14 3 C-13.34 3.66 -12.68 4.32 -12 5 C-8.62693382 5.58414702 -8.62693382 5.58414702 -5 5 C-2.06026719 2.64581624 -2.06026719 2.64581624 0 0 Z " fill="#061824" transform="translate(332,256)"/>
<path d="M0 0 C43.23 0 86.46 0 131 0 C131.33 14.85 131.66 29.7 132 45 C131.34 45 130.68 45 130 45 C130 30.48 130 15.96 130 1 C88.42 1 46.84 1 4 1 C3.67 2.32 3.34 3.64 3 5 C1.5 3.625 1.5 3.625 0 2 C0 1.34 0 0.68 0 0 Z " fill="#061824" transform="translate(399,352)"/>
<path d="M0 0 C0.495 1.485 0.495 1.485 1 3 C-8.80102539 12.80102539 -18.60205078 22.60205078 -28.40307617 32.40307617 C-29.02225922 33.02298431 -29.64144226 33.64289246 -30.27938843 34.28158569 C-31.35782147 35.35864155 -32.4388286 36.43313284 -33.52359009 37.5038147 C-35.45554099 39.41360526 -37.21506391 41.27958308 -38.875 43.4375 C-41.13157284 46.15866136 -43.56217204 48.26868968 -46.265625 50.52734375 C-49.46174071 53.24116272 -52.31905181 56.11476735 -54.875 59.4375 C-57.13157284 62.15866136 -59.56217204 64.26868968 -62.265625 66.52734375 C-66.3253666 69.97446668 -69.7527979 73.79066394 -73 78 C-73.99 77.67 -74.98 77.34 -76 77 C-75.42158781 76.4229705 -75.42158781 76.4229705 -74.83149052 75.83428383 C-65.45661615 66.48147682 -56.08453008 57.12588378 -46.71545506 47.76726723 C-42.18459075 43.24162999 -37.65279742 38.71693115 -33.11889648 34.19433594 C-28.74659519 29.83286973 -24.37671414 25.46899231 -20.00852776 21.103405 C-18.33837478 19.43510514 -16.66733939 17.76768822 -14.99542427 16.10115433 C-12.66073093 13.7736796 -10.32914478 11.44313536 -7.99829102 9.11181641 C-7.3005809 8.41770157 -6.60287079 7.72358673 -5.88401794 7.00843811 C-5.25158173 6.37462723 -4.61914551 5.74081635 -3.96754456 5.08779907 C-3.41539056 4.53656687 -2.86323656 3.98533466 -2.29435062 3.41739845 C-0.89176181 2.01094002 -0.89176181 2.01094002 0 0 Z " fill="#061824" transform="translate(608,317)"/>
<path d="M0 0 C0.66 0.33 1.32 0.66 2 1 C-0.9272373 5.02495129 -4.29174116 8.09196188 -8.046875 11.3046875 C-10.48745323 13.4231094 -12.74607716 15.68516033 -15 18 C-15.804375 18.78375 -16.60875 19.5675 -17.4375 20.375 C-19.36770798 22.35228622 -21.11791953 24.31688563 -22.875 26.4375 C-25.45904562 29.49982656 -28.25845902 32.04212897 -31.3359375 34.59765625 C-34.51630175 37.27782237 -37.34042043 40.14254656 -39.875 43.4375 C-42.59165456 46.7134658 -45.71332315 49.31341864 -49 52 C-49.66 51.67 -50.32 51.34 -51 51 C-34.17 34.17 -17.34 17.34 0 0 Z " fill="#061824" transform="translate(239,344)"/>
<path d="M0 0 C0.66 0.66 1.32 1.32 2 2 C1.01 2.495 1.01 2.495 0 3 C0.3403125 3.8971875 0.3403125 3.8971875 0.6875 4.8125 C1 7 1 7 -0.25 8.75 C-2 10 -2 10 -5 10 C-7.15028304 10.94978897 -7.15028304 10.94978897 -9 12 C-7.55575365 8.76138697 -5.74227753 6.38030837 -3.375 3.75 C-2.74335938 3.04359375 -2.11171875 2.3371875 -1.4609375 1.609375 C-0.97882813 1.07828125 -0.49671875 0.5471875 0 0 Z " fill="#061824" transform="translate(286,274)"/>
<path d="M0 0 C1.98 1.65 3.96 3.3 6 5 C5.67 5.66 5.34 6.32 5 7 C4.01 7.33 3.02 7.66 2 8 C1.67 9.98 1.34 11.96 1 14 C0.67 14 0.34 14 0 14 C0 9.38 0 4.76 0 0 Z " fill="#061824" transform="translate(348,391)"/>
<path d="M0 0 C0.66 0.66 1.32 1.32 2 2 C1.34 3.32 0.68 4.64 0 6 C-0.99 5.01 -1.98 4.02 -3 3 C-2.01 2.01 -1.02 1.02 0 0 Z M-4 4 C-4 7 -4 7 -5.5 8.6875 C-5.995 9.120625 -6.49 9.55375 -7 10 C-6.42655063 7.13275314 -6.1385485 6.1385485 -4 4 Z " fill="#061824" transform="translate(385,209)"/>
<path d="M0 0 C0.99 0.99 1.98 1.98 3 3 C1.35 3.33 -0.3 3.66 -2 4 C-2 4.66 -2 5.32 -2 6 C-3.32 6.33 -4.64 6.66 -6 7 C-4.02 4.69 -2.04 2.38 0 0 Z " fill="#061824" transform="translate(490,192)"/>
<path d="M0 0 C0.66 0.66 1.32 1.32 2 2 C1.9375 4 1.9375 4 1 6 C-1.5625 7.25 -1.5625 7.25 -4 8 C-2.68 5.36 -1.36 2.72 0 0 Z " fill="#061824" transform="translate(360,351)"/>
<path d="M0 0 C2.97 0 5.94 0 9 0 C9 0.33 9 0.66 9 1 C7.35 1 5.7 1 4 1 C3.67 2.32 3.34 3.64 3 5 C1.5 3.625 1.5 3.625 0 2 C0 1.34 0 0.68 0 0 Z " fill="#061824" transform="translate(399,352)"/>
</svg>
