<?xml version="1.0" encoding="UTF-8"?>
<svg id="Design" xmlns="http://www.w3.org/2000/svg" viewBox="0 0 1075.56 1735.68">
  <defs>
    <style>
      .cls-1 {
        fill: #31231d;
      }

      .cls-2 {
        fill: #46352b;
      }

      .cls-3 {
        fill: #9f9fa1;
      }

      .cls-4 {
        fill: #4e4f4f;
      }

      .cls-5 {
        fill: #d5d5d7;
      }

      .cls-6 {
        fill: #382517;
      }

      .cls-7 {
        fill: #513f32;
      }

      .cls-8 {
        fill: #8a8a8b;
      }

      .cls-9 {
        fill: #c59f84;
      }

      .cls-10 {
        fill: #7d7c7d;
      }

      .cls-11 {
        fill: #c49e83;
      }

      .cls-12 {
        fill: #484441;
      }
    </style>
  </defs>
  <path class="cls-5" d="m865.71,1735.68H159.03c-3.35-4.02-2.17-9.01-2.69-13.57-4.25-37.4-5.13-74.83-1.52-112.38,3.57-37.01,2.34-74.01-1.88-110.91-2.87-25.14-4.47-50.42-8.31-75.45-6.18-40.34-15.66-79.89-27.48-118.94-11.37-37.54-26.63-73.63-40.28-110.33-1.46-3.92-2.99-7.8-3.94-11.88-.38-1.56-.55-3.17-.97-4.73-.21-.73-.33-1.48-.41-2.23-.03-1.54.2-2.97,1.63-3.9.76-.18,1.45-.02,2.09.42,1.2.96,2.29,2.04,3.37,3.15,16.18,23.08,31.69,46.62,47.91,69.67,27.77,39.48,52.51,81.13,83.97,117.94,27.29,31.92,54.6,63.9,87.74,90.13,28.98,22.93,61.24,39.22,98.29,43.44,30.03,3.42,59.97.67,89.29-6.9,50.89-13.13,98.98-32.91,143.21-61.58.66-.43,1.4-.75,1.99-1.25,8.42-7.09,16.4-7.16,24.99.27,7.62,6.59,17.49,9.22,26.78,12.63,44.85,16.46,91.4,25.43,138.64,31.35,13.85,1.73,13.01,3.49,13.75,13.45,1.78,24.15,3.05,48.34,5.65,72.44,3.98,36.84,9.51,73.45,14.94,110.09,2.94,19.88,6.57,39.64,10.52,59.35.65,3.24,2.06,6.64-.61,9.72Z"/>
  <path d="m865.71,1735.68c-2.75-15.4-5.53-30.79-8.25-46.2-6.04-34.19-10.7-68.59-15.21-103-4.68-35.74-7.88-71.62-8.98-107.66-.14-4.43-1.92-5.02-5.49-5.3-30.01-2.38-59.31-9.14-88.68-15.2-24.57-5.07-48.29-13.25-71.55-22.66-7.34-2.97-13.92-7.24-19.94-12.26-2.8-2.33-4.59-2.07-7.43-.3-11.96,7.46-23.83,15.11-36.2,21.84-42.87,23.35-87.89,41.07-136.05,50.13-24.79,4.66-49.76,6.11-74.83,2.83-24.16-3.17-46.27-12.39-67.4-24.15-21.64-12.04-40.35-27.89-57.73-45.33-38.79-38.93-74.35-80.49-104.91-126.33-28.52-42.78-57.9-84.98-86.9-127.43-1.12-.66-.74-2.25-1.82-2.94v-.03c-2.22-1.12-2.97-3.3-3.89-5.36-.44-.71-.78-1.46-1.05-2.19,0,.05-.6.05-.6.05,0,0,.49.35.5.39.5.99.98,1.95,1.48,2.92,1.63,2.26.91,5.08,1.87,7.49-.06.48.07.9.37,1.27.71,1,.47,2.36,1.27,3.33,7.4,22,16.13,43.51,24.49,65.15,22.75,58.86,39.42,119.35,48.63,181.79,2.78,18.83,4.1,37.86,6.22,56.79,3.76,33.49,6.37,67.05,4.93,100.77-.79,18.51-2.2,36.99-3.21,55.5-1.46,26.66.35,53.21,2.78,79.74.5,5.42,1.8,10.81.88,16.32h-7.83c-2.01-17.63-4.04-35.23-5.11-52.96-1.68-28.01.57-55.83,2.45-83.7,2.53-37.58,2.63-75.1-2.97-112.51-3.75-25.03-6.2-50.24-10.62-75.18-10.42-58.77-27.07-115.72-48.55-171.4-23.85-61.82-46.25-124.18-67.34-187-11.71-34.88-17.18-70.88-18.44-107.63-.73-21.42-.95-42.8.19-64.19,2.3-43.04,13.03-83.35,38.15-119.14,14.89-21.22,31.28-41.13,49.62-59.45,9.71-9.7,20.89-17.15,33.28-23.08,19.12-9.16,39.18-15.78,59.1-22.81,19.96-7.04,38.92-16.45,58.26-24.93,6.21-2.72,11.67-6.72,16.53-11.65,3.82-3.87,8.41-7.01,12.8-10.29,20.67-15.45,38.81-33.01,51.9-55.74,10.89-18.92,15.81-38.97,16.38-60.47.23-8.41-.53-16.57-2.9-24.73-2.47-8.5-4.1-17.25-5.93-25.92-.71-3.36-2-5.19-5.77-6.17-10.55-2.75-19.49-8.64-27.35-16.14-24.34-23.21-35.97-51.97-37.05-85.29-.2-6.04.69-12.02,1.91-17.88,3.06-14.59,14.41-23.22,29.39-22.79.98.03,2.01.69,3.32-.46.42-3.12-1.11-6.24-1.76-9.46-3.27-16.13-5.12-32.47-7.13-48.78-2.69-21.75-5.52-43.49-5.7-65.48-.14-17.22,3.94-32.93,13.93-47.21,8.22-11.76,15.55-24.13,24.18-35.62,8.89-11.82,19.47-21.75,31.94-29.7,15.85-10.11,32.11-19.49,48.81-28.16,26.05-13.52,54.12-20.22,82.75-25.27,27.7-4.88,55.55-5.5,83.49-3.15,16.33,1.38,31.56,6.59,46.05,14.27,23.08,12.24,41.75,29.21,56.59,50.7,14.44,20.91,19.05,43.67,14.42,68.51-2.01,10.77-3.68,21.61-5.77,32.36-2.92,14.96-3.5,30.05-2.89,45.22.73,18.07.62,36-5.78,53.34-2.22,6.01-.6,12.33-.23,18.54,12.5-1.31,18.7,2.34,23.32,13.78,3.95,9.78,6.24,20.07,5.99,30.56-.59,25.21-4.14,49.91-15.41,72.92-4.4,9-9.42,17.53-18.05,23.17-3.2,2.09-2.89,5.4-3.37,8.34-2.57,15.44-4.75,30.97-8.39,46.2-7.92,33.07-21.56,63.34-46.65,87.07-6.88,6.51-10.64,13.4-12.32,22.46-3.8,20.52-8.25,40.92-12.41,61.37-.14.71-.02,1.47-.02,2.62,18.98,3.81,37.44,9.35,56.03,14.39,19.27,5.23,37.46,12.91,54.29,23.73,14.94,9.61,30.46,18.22,46.32,26.2,26.34,13.27,49.96,30.24,70.85,51.07,19.59,19.54,39.86,38.46,56.48,60.74,3.43,4.6,6.95,9.2,9.81,14.15,23.35,40.53,45.17,81.71,57.36,127.33,12.24,45.8,31.64,88.85,51.47,131.76,16.33,35.34,35.75,69.03,53.31,103.71,5.18,10.24,10.13,20.61,15.08,30.96,14.07,29.45,19.92,60.86,21.92,93.14,1.57,25.27,3,50.55,4.39,75.83.65,11.78-.24,23.46-2.5,35.05-4.34,22.25-17.58,35.27-39.82,39.71-20.86,4.17-41.9,5.96-63.09,4.83-23.19-1.23-46.42-2.28-69.49-5.14-17.35-2.15-34.6-5.11-52.11-5.79-.78-.03-1.56-.15-2.34-.17q-5.21-.13-4.79,5.15c3.3,42.43,7.34,84.77,13.52,126.9,6.33,43.12,12.54,86.26,18.81,129.39h-7.83Z"/>
  <path class="cls-3" d="m72.66,1175.03c-1.98-2.22-2.47-5.05-3.2-7.77-.69-1.69.16-2,1.6-1.77,1.2,2.02,2.97,3.74,3.27,6.23-1.35.71-1.2,2.16-1.67,3.31Z"/>
  <path class="cls-3" d="m74.34,1171.74c1.17.63,1.86,1.56,1.82,2.94-1.39-.5-2.01-1.46-1.82-2.94Z"/>
  <path class="cls-3" d="m74.31,1179.62c-1.12-.84-1.58-1.94-1.27-3.33,1.36.75,1.68,1.9,1.27,3.33Z"/>
  <path class="cls-5" d="m937.48,1034.08c-23.12-15.87-49.11-17.79-75.86-15.13-17.72,1.76-33.88,8.24-48.74,17.99-.84.55-1.75,1-3.14,1.79-1.39-2.49-.48-4.75-.16-6.83,3.89-25.65,5.2-51.41,2.49-77.25-1.55-14.82-.72-29.75-2.61-44.55-1.16-9.08-2.87-18.03-4.85-26.95-.4-1.81-.81-3.88-3.18-3.61-2.18.25-2.88,2.23-2.74,4.13.32,4.42.7,8.85,1.4,13.23,1.25,7.75,2.01,15.57,2.07,23.38.19,25.06,4.22,49.99,2.5,75.1-1.09,15.88-1.85,31.79-5.03,47.45-.68,3.35-.95,6.71-.73,10.12,1.24,19.27,2.47,38.55,3.71,57.83.39,6.12.45,6.35-5.84,7.36-15.05,2.43-25.24,10.52-30.22,25.02-.59,1.72-1.46,3.36-2.03,5.09-3.12,9.5-9.44,15.94-18.45,20.15-35.8,16.7-72.16,31.61-111.59,37.61-20.38,3.1-40.28,8.8-60.7,11.78-9.81,1.43-19.67,2.53-29.47,4.06-3.53.55-5.83-.55-8.25-2.99-5.39-5.43-9.75-11.55-13.51-18.16-8.54-15.04-14.7-31.11-20.35-47.4-.51-1.48-1.03-2.96-1.47-4.46-8.5-29.34-29.18-45.35-57.78-52.52-9.36-2.35-18.86-4.14-28.28-6.26-7.33-1.64-13.55-4.96-18.42-11-4.96-6.15-11.2-10.98-18.35-14.41-7.81-3.74-14.88-8.57-21.95-13.52-7.83-5.49-15.34-11.99-25.94-11.52-2.74.12-2.96-2.51-3.54-4.46-2.53-8.5-4.95-17.03-7.54-25.5-15.07-49.4-37.29-95.69-61.65-141.03-1.02-1.9-1.84-5.63-4.3-4.63-3.54,1.44-1.53,4.99-.52,7.45,2.76,6.76,5.66,13.47,8.8,20.06,15.39,32.26,30.52,64.64,42.42,98.41,4.42,12.54,8.52,25.2,12.75,37.81.9,2.7,1.58,5.46,1.33,8.95-4.7-.35-9.32-.84-13.96-1.02-22.27-.87-44.32.9-66.2,5.25-25.85,5.14-51.7,10.34-76.93,18.05-18.77,5.74-36.81,13.36-53.65,23.51-20,12.05-37.14,26.96-47.1,50.52-3.05-5.54-6.21-9.88-8-14.73-11.92-32.3-24.29-64.45-32.5-98-5.29-21.62-8.37-43.54-9.65-65.73-1.64-28.43-1.83-56.85.48-85.28,3.1-38.3,14.76-73.45,37.09-104.95,13.78-19.43,28.99-37.63,45.64-54.64,9.41-9.62,20.16-17.23,32.44-22.88,15.9-7.31,31.96-14.17,48.66-19.44,23.98-7.57,46.25-19.15,69.07-29.43,3.53-1.59,6.83-5.46,10.12-5.33,3.25.13,6.23,4.19,9.53,6.19,32.87,19.98,67.46,36.47,103.39,50.14,19.74,7.51,39.58,14.84,60.17,19.84,12.26,2.98,24.57,4.58,37.24,3.47,24.99-2.2,50.04-2.64,75.12-2.14,6.81.14,13.53-.44,20.16-2.22,7.33-1.97,11.72-6.13,12.6-14.02,1.07-9.59,2.56-19.14,4.03-28.67.78-5.06,1.04-5.33,6.04-3.9,16.3,4.66,32.51,9.65,48.81,14.33,20.22,5.81,39.13,14.38,56.72,25.96,15.94,10.49,32.96,19.1,49.78,28.04,19.69,10.47,37.87,23.08,54.19,38.32,15.46,14.44,30.4,29.41,45.04,44.68,21.77,22.7,37.22,49.45,51.29,77.33,15,29.71,27.6,60.19,35.65,92.53,4.1,16.48,10.33,32.28,16.34,48.13,1.1,2.1.9,3.48-1.88,3.47Z"/>
  <path class="cls-9" d="m313.77,1046.9c-3.53,6.65-2.17,13.43.52,20.58-3.54,1.52-6.8.31-9.93-.09-13.45-1.74-26.56-.51-39.36,3.98-3.96,1.39-7.78,3.06-11.21,5.5-9.28,6.61-11.56,14.83-7.4,27.09-3.59.67-7.2,1.09-10.67,2.04-12.06,3.29-19.62,14.61-17.52,25.96,1.58,8.53,6.19,14.21,14.96,16.02,1.25.26,2.61.23,3.68,1.49-.96,4.67-3.02,9.31-2.2,14.4,1.61,9.96,7.56,16.48,16.5,20.33,14.85,6.4,29.84,12.5,45.37,17.14,1.72.51,3.65.51,4.91,2.06-4.64,17.71.84,30.26,17.39,39.44,13.86,7.68,29.19,11.15,44.39,14.9,8.87,2.19,17.87,3.77,26.98,4.66,16.35,1.59,32.37-.49,48.01-5.04,15.27-4.44,30.33-9.53,45.17-15.36,14.08-5.53,28.9-8.83,43.98-10.79,33.88-4.4,67.83-8.13,101.36-15.13,35.16-7.34,69.28-17.45,101.92-32.51,6.87-3.17,13.92-5.94,20.82-9.05,9.82-4.42,16.35-11.83,19.83-22.03,1.43-4.19,2.9-8.42,4.87-12.36,5.98-11.94,19.58-17.48,32.38-13.84,10.04,2.86,18.64,8.18,26.44,14.81,23.96,20.39,38.91,46,44.02,77.17,2.31,14.06-1.49,26.34-10.99,36.92-3.32,3.7-6.86,7.16-10.79,10.22-19.37,15.07-38.77,30.1-58.09,45.23-26.18,20.51-54.99,37-83.11,54.54-33.67,20.99-67.46,41.79-101.29,62.53-46.31,28.39-96.11,47.94-149.52,57.98-25.82,4.86-51.91,6.47-77.87,1.56-32.27-6.11-60.3-21.37-85.56-42-20.29-16.57-37.92-35.84-55.84-54.84-29.63-31.42-56.44-65.24-81.28-100.36-21.08-29.81-42.06-59.76-62.2-90.26-11.36-17.2-23.46-33.91-33.91-51.73-2.99-5.1-3.28-9.53-1.14-14.68,4.41-10.63,11.52-19.19,20.1-26.63,12.32-10.68,26.11-19.03,40.84-25.96,23.06-10.85,47.4-17.66,72.21-22.94,24.75-5.27,49.47-10.79,74.84-12.42,10.44-.67,20.87-.91,31.31-.36,2.3.12,4.72,0,7.1,1.81Z"/>
  <path class="cls-9" d="m657.38,312.27c1.8,34.54-1.18,68.9-5.09,103.11-4,35.02-9.6,69.86-24.96,102.18-9.42,19.82-22.29,36.96-39.16,51.21-14.93,12.61-32.15,18.73-51.27,21.22-33.64,4.38-66.19-.17-97.74-11.7-51.4-18.77-81.66-56.86-96.73-108.26-8.79-29.97-12.42-60.71-14.28-91.81-1.17-19.58-2.16-39.05.1-58.61,1.82-15.7,5.05-30.8,13.56-44.5,9.01-14.51,12.98-30.6,13.66-47.62.44-10.95,1.11-21.94,4.72-32.42,8.7-25.28,26.76-40.07,52.64-44.87,18.69-3.47,37.51-6.35,56.64-6.84,17.55-.45,34.61-4.7,51.74-8.19,22.19-4.52,44.43-5.51,66.94-2.58,21.3,2.78,35.81,13.39,44.43,33.42,8.54,19.84,12.8,40.74,18.21,61.41,5.68,21.72,5.86,43.89,6.56,66.04.2,6.26.03,12.53.03,18.8Z"/>
  <path class="cls-9" d="m651.29,1417.14c1.63-2.88,4.46-3.9,6.83-5.39,28.08-17.63,56.04-35.44,84.37-52.66,31.33-19.04,60.8-40.53,88.49-64.51,4.36-3.78,9-7.17,14.1-9.83,31.9-16.62,64.86-30.06,101.14-33.54,2.53-.24,5.01-1.04,7.4-2.19-27.43-3.3-53.36,2.92-79.35,13.46.69-1.59.84-2.31,1.25-2.82,11.69-14.51,14.22-31.07,10.4-48.79-7.26-33.71-24.16-61.41-52.22-81.91-5.72-4.18-11.79-7.78-18.79-9.37-3.06-.7-4.12-2.35-4.32-5.44-1.24-19.01-2.59-38.02-4.1-57.01-.33-4.2,1.16-6.69,4.65-8.95,29.59-19.15,61.54-24.94,95.9-17.21,18.44,4.15,32.41,15.11,43.93,29.58,1.27,1.6,2.08,3.61,2.94,5.5,19.61,43.28,40.03,86.13,63.3,127.6,9.19,16.38,17.22,33.4,24.96,50.53,12.34,27.27,17.72,56.12,19.39,85.78,1.43,25.53,2.73,51.08,4.03,76.62.55,10.73-.22,21.36-2.19,31.94-3.41,18.32-14.19,28.95-32.52,32.35-16.99,3.16-34.1,5.35-51.36,4.79-31.04-1.02-62.06-2.66-92.8-7.5-17.83-2.81-35.81-3.82-53.81-4.46-17.31-.61-34.17-3.99-51.15-6.89-31.69-5.41-63.04-12.05-93.22-23.42-12.69-4.78-25.29-9.7-37.27-16.27Z"/>
  <path class="cls-6" d="m662.23,247.34c.08-3.69-.86-7.21-1.66-10.77-6.05-26.89-11.4-53.97-23.49-79.09-7.87-16.34-20.59-26.49-38.04-30.85-18.2-4.55-36.77-3.37-55.23-2.96-6.42.14-12.78,2.19-19.2,3.07-20.04,2.74-39.73,7.62-59.94,9.5-14.46,1.34-28.9,3.03-43.34,4.59-21.08,2.28-39.86,9.65-54.27,26.02-9,10.23-14.51,22.06-16.92,35.47-2.17,12.07-1.62,24.34-3,36.48-1.08,9.49-3.92,18.53-8.66,26.54-8.88,15.02-15.37,30.53-16.87,48.16-.43,5.04-.81,10.24-1.55,16.21-4.36-3.44-5.63-8.06-8.27-11.67-10.51-14.37-14.05-31.05-16.37-48.17-1.53-11.31-3.01-22.62-4.47-33.94-.63-4.89-1.02-9.85-1.44-14.72-1.41-16.56-3.66-33.07-3.61-49.77.05-15.9,4.45-30.2,13.25-43.35,5.79-8.66,11.32-17.49,16.95-26.25,10.73-16.68,24.29-30.15,41.52-40.46,20.86-12.49,42.23-23.82,64.53-33.38,14.66-6.28,30.31-9.2,45.81-12.65,30-6.69,60.43-7.21,90.91-6.13,15.8.56,30.7,5.6,44.63,13,12.91,6.86,25.25,14.79,35.22,25.63,10.04,10.91,19.73,22.26,26.57,35.52,4.78,9.26,7.91,19.04,7.95,29.88.06,15.24-2.61,30.01-5.78,44.74-4.31,20.05-4.99,40.39-3.43,60.62.75,9.71.86,19.11-.48,28.64-.4.57-.83.6-1.3.08Z"/>
  <path class="cls-9" d="m397.19,1228.06c-17.41-7.69-34.85-15.31-52.22-23.09-9.13-4.09-18.55-7.07-28.56-7.69-10.81-.67-21.07-3.57-31.13-7.28-11.01-4.06-21.99-8.24-32.54-13.41-9.46-4.64-12.59-11.05-10.19-23.54.61-3.18,2.37-4.6,5.8-5.16,14.34-2.34,28.03,1.19,41.73,4.27,8.38,1.88,16.58,4.64,24.75,7.32,9.68,3.18,19.53,5.57,29.5,7.68,16.16,3.43,31.36,9.68,46.25,16.72,7.06,3.34,13.97,7.08,21.78,8.58,2.08.4,4.06,1.03,5.69-.84-.06-2.34-1.91-2.17-3.26-2.66-11.8-4.34-22.44-11.06-33.78-16.36-13.05-6.11-26.44-10.98-40.47-14.34-10.13-2.43-20.16-5.39-30.06-8.65-14.46-4.76-29.31-7.4-44.36-9.14-6.5-.75-13.02-.6-19.54,0-3.11.29-6.27.5-9.37.23-10.13-.88-14.59-9.93-9.36-18.72,1.35-2.28,3-4.44,5.4-5.53,8.89-4.05,18.18-6.36,27.85-3.7,10.11,2.78,20.32,5.33,30.76,5.29,43.07-.19,82.67,12.83,121.07,30.79.94.44,1.94.73,2.92,1.09,1.82.53,2.48-.06,1.86-1.91-18.22-14.6-38.95-23.96-61.48-29.69-19.81-5.04-39.88-7.88-60.34-7.95-8.9-.03-17.68-1.37-26.31-3.5-3.28-.81-6.56-1.85-9.61-3.26-9.99-4.61-10.86-12.39-2.28-19.39,2.87-2.34,6.3-3.64,9.68-5.03,14.22-5.82,29.07-6.21,43.91-4.04,11.39,1.67,22.73,2.98,34.23,2.45,5.81-.27,11.33,1.8,17.09,1.73,1.88.3,4.42,2.52,4.78-1.63-11.04-4.62-22.86-4.91-34.51-6.13-8.97-.94-14.46-7.14-14.32-16.06.05-2.93,1.18-4.7,3.86-6.1,7.21-3.79,13.94-3.68,20.42,1.46,3.27,2.59,6.54,5.19,9.85,7.73,4.14,3.17,8.12,6.73,13.06,8.53,8.29,3.02,15,8.3,21.47,14.03,2.54,2.25,5.3,4.26,7.69,6.66,6.75,6.76,15.17,9.89,24.29,11.68,7.42,1.46,14.8,3.12,22.23,4.51,6.22,1.17,11.97,3.53,17.66,6.19,15.92,7.43,27.2,18.95,32.66,35.94,3.35,10.42,6.81,20.83,10.8,31.01,6.28,16.03,13.21,31.78,24.51,44.85-.72,2.31-2.55,2.1-3.89,2.28-19.3,2.49-37.25,9.89-55.7,15.41-16.73,5-33.45,10.12-50.68,13.07-12.44,2.13-24.96,1.33-37.37-.92-17.48-3.17-34.72-7.23-51.11-14.28-6.03-2.59-11.74-5.73-16.12-10.8-3.53-4.08-5.82-8.69-5.25-14.26.63-6.21,3.16-8.29,9.28-7.57,9.9,1.17,19.5,3.47,28.44,8.06,7.66,3.93,15.45,7.58,23.47,10.73,7.81,3.07,15.84,5.17,24.19,6.03,1.89.17,4.61,2.76,4.9-1.69Z"/>
  <path class="cls-9" d="m261.36,626.47c3.21-3.67,7.12-6.24,10.75-9.1,6.35-5.01,12.83-9.85,19.06-15.01,20.3-16.85,34.62-38.16,45.38-61.98,5.56-12.3,7.41-25.47,7.58-39.53,2.09,1.39,2.46,3.41,3.35,5.03.5.91.99,1.84,1.45,2.78,23.39,48.41,63.67,74.36,114.58,86.14,28.09,6.5,56.32,6.96,84.68,1.89,11.15-1.99,21.74-5.43,31.39-11.49,1.51-.95,2.85-2.34,5.46-2.3-2.62,12.28-4.83,24.54-7.89,36.59-5.84,23.03-10.02,46.38-13.82,69.8-1.36,8.36-2.37,9.52-10.8,10.69-5.4.75-10.83,1.15-16.37.81-19.57-1.2-39.18-.37-58.63,1.51-22.21,2.15-43.54-.17-64.86-6.62-49.94-15.12-97.24-36.08-142.2-62.45-3.09-1.81-6.37-3.45-9.11-6.76Z"/>
  <path class="cls-9" d="m325.32,430.91c-9.47-3.06-17.02-7.49-23.41-13.69-20.4-19.8-32.15-43.86-35.17-72.18-.89-8.35-.9-16.66.67-24.89,2-10.51,9.49-17.06,19.29-17.14,4.63-.04,9.21,1.09,11.61,5.17,6.33,10.76,14.07,20.68,19.25,32.15.99,2.2,1.55,4.31,1.7,6.69,1.32,21.82,2.67,43.64,4.14,65.45.4,5.89,1.22,11.75,1.93,18.44Z"/>
  <path class="cls-11" d="m660.61,413.42c.68-9.89.99-18.63,1.92-27.31,2.36-21.81,3.09-43.68,2.77-65.6-.12-7.82-.15-15.65-.03-23.47.08-4.94,2.88-6.93,7.65-5.63,4.11,1.12,6.44,4.21,8.19,7.86,3.44,7.15,5.45,14.84,5.76,22.61,1.17,28.87-3.08,56.68-18.15,82-1.93,3.24-3.72,6.7-8.11,9.54Z"/>
  <path class="cls-1" d="m397.19,1228.06c1.94-.24,3.14.74,4.83,2.59-3.93,1.11-6.88.72-9.73-.9,1.62-.6,3.74.24,4.9-1.69Z"/>
  <path class="cls-8" d="m937.48,1034.08c1.65-.6,1.5-2.18,1.88-3.47,2.22,1.72,1.79,4.42,3.37,6.97-3.02-.45-4.39-1.64-5.26-3.5Z"/>
  <path class="cls-2" d="m367.36,1077.72c1.07-.08,2.17,0,2.59,1.14.49,1.3-.37,1.8-1.53,1.88-2.09.14-4.14.1-5.84-1.39,1.56-.63,3.65.28,4.78-1.63Z"/>
  <path class="cls-7" d="m417.7,1148.02c1.42.32,2.5,1.57,1.78,2.57-1.14,1.58-2.58.56-3.63-.66.62-.64,1.24-1.27,1.86-1.91Z"/>
  <path class="cls-4" d="m67.88,1164.04c-.17-.18-.38-.33-.49-.54-.7-1.24-1.71-2.86.03-3.61,1.11-.47,1.83,1.22,2.2,2.41-.47.68-.67,1.64-1.74,1.73Z"/>
  <path class="cls-10" d="m67.88,1164.04c.58-.58,1.16-1.15,1.74-1.73.48,1.06.96,2.11,1.44,3.17-.53.59-1.07,1.18-1.6,1.77-1-.84-1.35-1.99-1.58-3.21Z"/>
  <path class="cls-12" d="m662.23,247.34c.43-.04.87-.06,1.3-.08,0,0,.02.01.02.01.31.32.43.66.36,1.02-.06.36-.14.54-.23.54l-.06.07c-.54.34-1.03.29-1.48-.16-.09-.48-.06-.94.09-1.41Z"/>
  <path class="cls-6" d="m663.68,248.84c-.04-.52-.09-1.04-.13-1.56,1.15.43,1.19.95.13,1.56Z"/>
  <path class="cls-6" d="m662.14,248.75c.49.04.99.1,1.48.16-.62,1.09-1.11,1.08-1.48-.16Z"/>
</svg>